<svg xmlns="http://www.w3.org/2000/svg" xmlns:xlink="http://www.w3.org/1999/xlink" width="180" zoomAndPan="magnify" viewBox="0 0 135 40.499999" height="54" preserveAspectRatio="xMidYMid meet" version="1.0"><defs><g/><clipPath id="5a6c6101e6"><path d="M 9 8 L 32 8 L 32 31 L 9 31 Z M 9 8 " clip-rule="nonzero"/></clipPath><clipPath id="a2b65b23b0"><path d="M 20.269531 4.003906 L 35.464844 19.195312 L 20.269531 34.386719 L 5.078125 19.195312 Z M 20.269531 4.003906 " clip-rule="nonzero"/></clipPath><clipPath id="4aa85c2eea"><path d="M 20.269531 4.003906 L 35.464844 19.195312 L 20.269531 34.386719 L 5.078125 19.195312 Z M 20.269531 4.003906 " clip-rule="nonzero"/></clipPath><clipPath id="c9721bd1cb"><path d="M 15 29 L 26 29 L 26 34 L 15 34 Z M 15 29 " clip-rule="nonzero"/></clipPath><clipPath id="c6bf0e7deb"><path d="M 20.269531 4.003906 L 35.464844 19.195312 L 20.269531 34.386719 L 5.078125 19.195312 Z M 20.269531 4.003906 " clip-rule="nonzero"/></clipPath><clipPath id="a6b8017ff7"><path d="M 20.269531 4.003906 L 35.464844 19.195312 L 20.269531 34.386719 L 5.078125 19.195312 Z M 20.269531 4.003906 " clip-rule="nonzero"/></clipPath><clipPath id="3c59ab3cb6"><path d="M 14.976562 14.867188 L 25.347656 14.867188 L 25.347656 23.757812 L 14.976562 23.757812 Z M 14.976562 14.867188 " clip-rule="nonzero"/></clipPath></defs><g clip-path="url(#5a6c6101e6)"><g clip-path="url(#a2b65b23b0)"><g clip-path="url(#4aa85c2eea)"><path fill="#174feb" d="M 27.992188 27.171875 C 23.730469 31.433594 16.8125 31.433594 12.546875 27.171875 C 8.285156 22.90625 8.285156 15.992188 12.546875 11.726562 C 16.8125 7.460938 23.730469 7.460938 27.992188 11.726562 C 32.257812 15.992188 32.257812 22.90625 27.992188 27.171875 " fill-opacity="1" fill-rule="nonzero"/></g></g></g><g clip-path="url(#c9721bd1cb)"><g clip-path="url(#c6bf0e7deb)"><g clip-path="url(#a6b8017ff7)"><path fill="#5d87ff" d="M 15.113281 29.078125 L 19.589844 33.554688 C 19.925781 33.890625 20.46875 33.890625 20.804688 33.554688 L 25.128906 29.234375 C 21.976562 30.796875 18.226562 30.746094 15.113281 29.078125 " fill-opacity="1" fill-rule="nonzero"/></g></g></g><g clip-path="url(#3c59ab3cb6)"><path fill="#ffffff" d="M 24.675781 23.679688 L 25.3125 23.679688 C 25.410156 23.679688 25.488281 23.757812 25.488281 23.855469 C 25.488281 23.953125 25.410156 24.03125 25.3125 24.03125 L 15.230469 24.03125 C 15.132812 24.03125 15.054688 23.953125 15.054688 23.855469 C 15.054688 23.757812 15.132812 23.679688 15.230469 23.679688 L 15.867188 23.679688 L 15.867188 19.417969 C 16.003906 19.453125 16.144531 19.472656 16.292969 19.472656 C 16.832031 19.472656 17.3125 19.21875 17.617188 18.824219 C 17.925781 19.21875 18.40625 19.472656 18.945312 19.472656 C 19.484375 19.472656 19.964844 19.21875 20.273438 18.824219 C 20.582031 19.21875 21.058594 19.472656 21.597656 19.472656 C 22.136719 19.472656 22.617188 19.21875 22.925781 18.824219 C 23.234375 19.21875 23.714844 19.472656 24.253906 19.472656 C 24.398438 19.472656 24.539062 19.453125 24.675781 19.417969 Z M 21.566406 23.679688 L 23.988281 23.679688 L 23.988281 20.289062 C 23.988281 20.164062 23.890625 20.0625 23.769531 20.0625 L 21.78125 20.0625 C 21.660156 20.0625 21.566406 20.164062 21.566406 20.289062 Z M 16.53125 21.722656 L 20.929688 21.722656 L 20.929688 19.953125 C 20.929688 19.871094 20.863281 19.804688 20.785156 19.804688 L 16.679688 19.804688 C 16.597656 19.804688 16.53125 19.871094 16.53125 19.953125 Z M 20.929688 22.097656 L 16.53125 22.097656 L 16.53125 22.613281 C 16.53125 22.65625 16.546875 22.691406 16.574219 22.71875 C 16.605469 22.746094 16.640625 22.761719 16.679688 22.761719 L 20.785156 22.761719 C 20.824219 22.761719 20.859375 22.746094 20.886719 22.71875 C 20.914062 22.691406 20.929688 22.65625 20.929688 22.613281 Z M 15.054688 17.617188 L 16.425781 14.988281 C 16.464844 14.914062 16.535156 14.871094 16.621094 14.871094 L 18.203125 14.871094 L 17.484375 17.617188 Z M 18.566406 14.871094 L 20.09375 14.871094 L 20.09375 17.617188 L 17.847656 17.617188 L 18.558594 14.914062 C 18.5625 14.902344 18.566406 14.886719 18.566406 14.871094 Z M 20.449219 14.871094 L 21.980469 14.871094 C 21.980469 14.886719 21.980469 14.902344 21.984375 14.914062 L 22.695312 17.617188 L 20.449219 17.617188 Z M 22.339844 14.871094 L 23.925781 14.871094 C 24.007812 14.871094 24.078125 14.914062 24.117188 14.988281 L 25.488281 17.617188 L 23.0625 17.617188 Z M 25.566406 17.972656 C 25.480469 18.621094 24.925781 19.121094 24.253906 19.121094 C 23.582031 19.121094 23.023438 18.621094 22.9375 17.972656 Z M 22.914062 17.972656 C 22.828125 18.621094 22.273438 19.121094 21.597656 19.121094 C 20.925781 19.121094 20.371094 18.621094 20.285156 17.972656 Z M 20.261719 17.972656 C 20.171875 18.621094 19.617188 19.121094 18.945312 19.121094 C 18.273438 19.121094 17.71875 18.621094 17.628906 17.972656 Z M 17.605469 17.972656 C 17.519531 18.621094 16.964844 19.121094 16.292969 19.121094 C 15.617188 19.121094 15.0625 18.621094 14.976562 17.972656 Z M 17.605469 17.972656 " fill-opacity="1" fill-rule="evenodd"/></g><g fill="#000000" fill-opacity="1"><g transform="translate(39.527652, 26.891665)"><g><path d="M 10.15625 -8.9375 C 9.863281 -9.476562 9.460938 -9.882812 8.953125 -10.15625 C 8.441406 -10.4375 7.84375 -10.578125 7.15625 -10.578125 C 6.40625 -10.578125 5.734375 -10.40625 5.140625 -10.0625 C 4.554688 -9.726562 4.097656 -9.242188 3.765625 -8.609375 C 3.441406 -7.972656 3.28125 -7.238281 3.28125 -6.40625 C 3.28125 -5.550781 3.445312 -4.804688 3.78125 -4.171875 C 4.113281 -3.535156 4.578125 -3.046875 5.171875 -2.703125 C 5.773438 -2.367188 6.472656 -2.203125 7.265625 -2.203125 C 8.242188 -2.203125 9.046875 -2.457031 9.671875 -2.96875 C 10.296875 -3.488281 10.703125 -4.210938 10.890625 -5.140625 L 6.5 -5.140625 L 6.5 -7.109375 L 13.421875 -7.109375 L 13.421875 -4.875 C 13.253906 -3.976562 12.890625 -3.148438 12.328125 -2.390625 C 11.765625 -1.640625 11.039062 -1.035156 10.15625 -0.578125 C 9.269531 -0.117188 8.273438 0.109375 7.171875 0.109375 C 5.941406 0.109375 4.828125 -0.164062 3.828125 -0.71875 C 2.835938 -1.28125 2.054688 -2.050781 1.484375 -3.03125 C 0.921875 -4.019531 0.640625 -5.144531 0.640625 -6.40625 C 0.640625 -7.664062 0.921875 -8.789062 1.484375 -9.78125 C 2.054688 -10.78125 2.835938 -11.554688 3.828125 -12.109375 C 4.828125 -12.671875 5.9375 -12.953125 7.15625 -12.953125 C 8.601562 -12.953125 9.851562 -12.597656 10.90625 -11.890625 C 11.96875 -11.191406 12.703125 -10.207031 13.109375 -8.9375 Z M 10.15625 -8.9375 "/></g></g></g><g fill="#000000" fill-opacity="1"><g transform="translate(53.591487, 26.891665)"><g><path d="M 3.828125 -12.78125 L 3.828125 0 L 1.265625 0 L 1.265625 -12.78125 Z M 3.828125 -12.78125 "/></g></g></g><g fill="#000000" fill-opacity="1"><g transform="translate(58.682298, 26.891665)"><g><path d="M 5.671875 0.125 C 4.785156 0.125 3.984375 -0.0234375 3.265625 -0.328125 C 2.554688 -0.628906 1.992188 -1.066406 1.578125 -1.640625 C 1.160156 -2.222656 0.945312 -2.90625 0.9375 -3.6875 L 3.6875 -3.6875 C 3.71875 -3.15625 3.898438 -2.738281 4.234375 -2.4375 C 4.578125 -2.132812 5.039062 -1.984375 5.625 -1.984375 C 6.21875 -1.984375 6.6875 -2.125 7.03125 -2.40625 C 7.375 -2.695312 7.546875 -3.070312 7.546875 -3.53125 C 7.546875 -3.914062 7.425781 -4.226562 7.1875 -4.46875 C 6.957031 -4.707031 6.671875 -4.894531 6.328125 -5.03125 C 5.984375 -5.175781 5.503906 -5.335938 4.890625 -5.515625 C 4.054688 -5.753906 3.378906 -5.992188 2.859375 -6.234375 C 2.347656 -6.472656 1.90625 -6.832031 1.53125 -7.3125 C 1.15625 -7.800781 0.96875 -8.445312 0.96875 -9.25 C 0.96875 -10.007812 1.15625 -10.664062 1.53125 -11.21875 C 1.914062 -11.78125 2.445312 -12.210938 3.125 -12.515625 C 3.8125 -12.816406 4.59375 -12.96875 5.46875 -12.96875 C 6.789062 -12.96875 7.863281 -12.644531 8.6875 -12 C 9.507812 -11.363281 9.960938 -10.472656 10.046875 -9.328125 L 7.234375 -9.328125 C 7.210938 -9.765625 7.023438 -10.125 6.671875 -10.40625 C 6.328125 -10.695312 5.867188 -10.84375 5.296875 -10.84375 C 4.796875 -10.84375 4.394531 -10.710938 4.09375 -10.453125 C 3.789062 -10.203125 3.640625 -9.832031 3.640625 -9.34375 C 3.640625 -9 3.753906 -8.710938 3.984375 -8.484375 C 4.210938 -8.265625 4.492188 -8.082031 4.828125 -7.9375 C 5.160156 -7.800781 5.632812 -7.640625 6.25 -7.453125 C 7.070312 -7.210938 7.742188 -6.96875 8.265625 -6.71875 C 8.796875 -6.476562 9.25 -6.113281 9.625 -5.625 C 10.007812 -5.132812 10.203125 -4.492188 10.203125 -3.703125 C 10.203125 -3.015625 10.023438 -2.378906 9.671875 -1.796875 C 9.316406 -1.210938 8.796875 -0.742188 8.109375 -0.390625 C 7.429688 -0.046875 6.617188 0.125 5.671875 0.125 Z M 5.671875 0.125 "/></g></g></g><g fill="#000000" fill-opacity="1"><g transform="translate(69.834478, 26.891665)"><g/></g></g><g fill="#000000" fill-opacity="1"><g transform="translate(74.1928, 26.891665)"><g><path d="M 7.859375 0 L 5.03125 -4.984375 L 3.828125 -4.984375 L 3.828125 0 L 1.265625 0 L 1.265625 -12.78125 L 6.0625 -12.78125 C 7.050781 -12.78125 7.890625 -12.601562 8.578125 -12.25 C 9.273438 -11.90625 9.796875 -11.4375 10.140625 -10.84375 C 10.492188 -10.257812 10.671875 -9.597656 10.671875 -8.859375 C 10.671875 -8.015625 10.425781 -7.253906 9.9375 -6.578125 C 9.457031 -5.898438 8.734375 -5.4375 7.765625 -5.1875 L 10.828125 0 Z M 3.828125 -6.90625 L 5.96875 -6.90625 C 6.664062 -6.90625 7.1875 -7.070312 7.53125 -7.40625 C 7.875 -7.738281 8.046875 -8.207031 8.046875 -8.8125 C 8.046875 -9.394531 7.875 -9.847656 7.53125 -10.171875 C 7.1875 -10.492188 6.664062 -10.65625 5.96875 -10.65625 L 3.828125 -10.65625 Z M 3.828125 -6.90625 "/></g></g></g><g fill="#000000" fill-opacity="1"><g transform="translate(85.930974, 26.891665)"><g><path d="M 10.6875 -5.296875 C 10.6875 -4.929688 10.664062 -4.597656 10.625 -4.296875 L 3.203125 -4.296875 C 3.265625 -3.566406 3.519531 -2.992188 3.96875 -2.578125 C 4.425781 -2.160156 4.984375 -1.953125 5.640625 -1.953125 C 6.585938 -1.953125 7.265625 -2.363281 7.671875 -3.1875 L 10.4375 -3.1875 C 10.144531 -2.207031 9.582031 -1.398438 8.75 -0.765625 C 7.925781 -0.140625 6.90625 0.171875 5.6875 0.171875 C 4.71875 0.171875 3.84375 -0.046875 3.0625 -0.484375 C 2.289062 -0.921875 1.6875 -1.535156 1.25 -2.328125 C 0.820312 -3.117188 0.609375 -4.035156 0.609375 -5.078125 C 0.609375 -6.117188 0.820312 -7.035156 1.25 -7.828125 C 1.675781 -8.628906 2.269531 -9.242188 3.03125 -9.671875 C 3.800781 -10.097656 4.6875 -10.3125 5.6875 -10.3125 C 6.65625 -10.3125 7.519531 -10.101562 8.28125 -9.6875 C 9.050781 -9.269531 9.644531 -8.679688 10.0625 -7.921875 C 10.476562 -7.160156 10.6875 -6.285156 10.6875 -5.296875 Z M 8.046875 -6.03125 C 8.023438 -6.6875 7.78125 -7.210938 7.3125 -7.609375 C 6.851562 -8.003906 6.289062 -8.203125 5.625 -8.203125 C 4.988281 -8.203125 4.453125 -8.007812 4.015625 -7.625 C 3.585938 -7.238281 3.320312 -6.707031 3.21875 -6.03125 Z M 8.046875 -6.03125 "/></g></g></g><g fill="#000000" fill-opacity="1"><g transform="translate(97.22965, 26.891665)"><g><path d="M 4.25 -8.046875 L 4.25 -3.125 C 4.25 -2.789062 4.332031 -2.546875 4.5 -2.390625 C 4.664062 -2.234375 4.941406 -2.15625 5.328125 -2.15625 L 6.515625 -2.15625 L 6.515625 0 L 4.90625 0 C 2.75 0 1.671875 -1.050781 1.671875 -3.15625 L 1.671875 -8.046875 L 0.453125 -8.046875 L 0.453125 -10.140625 L 1.671875 -10.140625 L 1.671875 -12.65625 L 4.25 -12.65625 L 4.25 -10.140625 L 6.515625 -10.140625 L 6.515625 -8.046875 Z M 4.25 -8.046875 "/></g></g></g><g fill="#000000" fill-opacity="1"><g transform="translate(104.33482, 26.891665)"><g><path d="M 0.609375 -5.109375 C 0.609375 -6.128906 0.8125 -7.035156 1.21875 -7.828125 C 1.625 -8.628906 2.175781 -9.242188 2.875 -9.671875 C 3.582031 -10.097656 4.367188 -10.3125 5.234375 -10.3125 C 5.992188 -10.3125 6.65625 -10.15625 7.21875 -9.84375 C 7.789062 -9.539062 8.25 -9.160156 8.59375 -8.703125 L 8.59375 -10.140625 L 11.171875 -10.140625 L 11.171875 0 L 8.59375 0 L 8.59375 -1.484375 C 8.257812 -1.003906 7.800781 -0.609375 7.21875 -0.296875 C 6.644531 0.015625 5.976562 0.171875 5.21875 0.171875 C 4.363281 0.171875 3.582031 -0.046875 2.875 -0.484375 C 2.175781 -0.929688 1.625 -1.550781 1.21875 -2.34375 C 0.8125 -3.144531 0.609375 -4.066406 0.609375 -5.109375 Z M 8.59375 -5.078125 C 8.59375 -5.691406 8.46875 -6.222656 8.21875 -6.671875 C 7.976562 -7.117188 7.648438 -7.460938 7.234375 -7.703125 C 6.816406 -7.941406 6.367188 -8.0625 5.890625 -8.0625 C 5.421875 -8.0625 4.984375 -7.941406 4.578125 -7.703125 C 4.171875 -7.472656 3.84375 -7.132812 3.59375 -6.6875 C 3.34375 -6.25 3.21875 -5.722656 3.21875 -5.109375 C 3.21875 -4.492188 3.34375 -3.957031 3.59375 -3.5 C 3.84375 -3.039062 4.171875 -2.691406 4.578125 -2.453125 C 4.992188 -2.210938 5.429688 -2.09375 5.890625 -2.09375 C 6.367188 -2.09375 6.816406 -2.207031 7.234375 -2.4375 C 7.648438 -2.675781 7.976562 -3.019531 8.21875 -3.46875 C 8.46875 -3.914062 8.59375 -4.453125 8.59375 -5.078125 Z M 8.59375 -5.078125 "/></g></g></g><g fill="#000000" fill-opacity="1"><g transform="translate(116.75055, 26.891665)"><g><path d="M 2.5625 -11.359375 C 2.113281 -11.359375 1.738281 -11.5 1.4375 -11.78125 C 1.132812 -12.070312 0.984375 -12.429688 0.984375 -12.859375 C 0.984375 -13.285156 1.132812 -13.640625 1.4375 -13.921875 C 1.738281 -14.210938 2.113281 -14.359375 2.5625 -14.359375 C 3.007812 -14.359375 3.382812 -14.210938 3.6875 -13.921875 C 3.988281 -13.640625 4.140625 -13.285156 4.140625 -12.859375 C 4.140625 -12.429688 3.988281 -12.070312 3.6875 -11.78125 C 3.382812 -11.5 3.007812 -11.359375 2.5625 -11.359375 Z M 3.828125 -10.140625 L 3.828125 0 L 1.265625 0 L 1.265625 -10.140625 Z M 3.828125 -10.140625 "/></g></g></g><g fill="#000000" fill-opacity="1"><g transform="translate(121.841361, 26.891665)"><g><path d="M 3.828125 -13.546875 L 3.828125 0 L 1.265625 0 L 1.265625 -13.546875 Z M 3.828125 -13.546875 "/></g></g></g></svg>