<svg xmlns="http://www.w3.org/2000/svg" xmlns:xlink="http://www.w3.org/1999/xlink" width="180" zoomAndPan="magnify" viewBox="0 0 135 40.499999" height="54" preserveAspectRatio="xMidYMid meet" version="1.0"><defs><g/><clipPath id="3d9bdb3140"><path d="M 4 8 L 27 8 L 27 31 L 4 31 Z M 4 8 " clip-rule="nonzero"/></clipPath><clipPath id="c30d3b41af"><path d="M 15.53125 4.003906 L 30.722656 19.195312 L 15.53125 34.386719 L 0.335938 19.195312 Z M 15.53125 4.003906 " clip-rule="nonzero"/></clipPath><clipPath id="4f353e527b"><path d="M 15.53125 4.003906 L 30.722656 19.195312 L 15.53125 34.386719 L 0.335938 19.195312 Z M 15.53125 4.003906 " clip-rule="nonzero"/></clipPath><clipPath id="d2ec299546"><path d="M 10 29 L 21 29 L 21 34 L 10 34 Z M 10 29 " clip-rule="nonzero"/></clipPath><clipPath id="9d39ed0b43"><path d="M 15.53125 4.003906 L 30.722656 19.195312 L 15.53125 34.386719 L 0.335938 19.195312 Z M 15.53125 4.003906 " clip-rule="nonzero"/></clipPath><clipPath id="d46f15af15"><path d="M 15.53125 4.003906 L 30.722656 19.195312 L 15.53125 34.386719 L 0.335938 19.195312 Z M 15.53125 4.003906 " clip-rule="nonzero"/></clipPath><clipPath id="91ea6de156"><path d="M 10.234375 14.867188 L 20.605469 14.867188 L 20.605469 23.757812 L 10.234375 23.757812 Z M 10.234375 14.867188 " clip-rule="nonzero"/></clipPath></defs><g clip-path="url(#3d9bdb3140)"><g clip-path="url(#c30d3b41af)"><g clip-path="url(#4f353e527b)"><path fill="#174feb" d="M 23.253906 27.171875 C 18.988281 31.433594 12.070312 31.433594 7.808594 27.171875 C 3.542969 22.90625 3.542969 15.992188 7.808594 11.726562 C 12.070312 7.460938 18.988281 7.460938 23.253906 11.726562 C 27.515625 15.992188 27.515625 22.90625 23.253906 27.171875 " fill-opacity="1" fill-rule="nonzero"/></g></g></g><g clip-path="url(#d2ec299546)"><g clip-path="url(#9d39ed0b43)"><g clip-path="url(#d46f15af15)"><path fill="#174feb" d="M 10.371094 29.078125 L 14.851562 33.554688 C 15.183594 33.890625 15.730469 33.890625 16.066406 33.554688 L 20.386719 29.234375 C 17.234375 30.796875 13.484375 30.746094 10.371094 29.078125 " fill-opacity="1" fill-rule="nonzero"/></g></g></g><g clip-path="url(#91ea6de156)"><path fill="#ffffff" d="M 19.933594 23.679688 L 20.570312 23.679688 C 20.667969 23.679688 20.75 23.757812 20.75 23.855469 C 20.75 23.953125 20.667969 24.03125 20.570312 24.03125 L 10.488281 24.03125 C 10.390625 24.03125 10.3125 23.953125 10.3125 23.855469 C 10.3125 23.757812 10.390625 23.679688 10.488281 23.679688 L 11.125 23.679688 L 11.125 19.417969 C 11.261719 19.453125 11.402344 19.472656 11.550781 19.472656 C 12.089844 19.472656 12.570312 19.21875 12.878906 18.824219 C 13.183594 19.21875 13.664062 19.472656 14.203125 19.472656 C 14.742188 19.472656 15.222656 19.21875 15.53125 18.824219 C 15.839844 19.21875 16.320312 19.472656 16.859375 19.472656 C 17.398438 19.472656 17.875 19.21875 18.183594 18.824219 C 18.492188 19.21875 18.972656 19.472656 19.511719 19.472656 C 19.65625 19.472656 19.800781 19.453125 19.933594 19.417969 Z M 16.824219 23.679688 L 19.246094 23.679688 L 19.246094 20.289062 C 19.246094 20.164062 19.148438 20.0625 19.027344 20.0625 L 17.039062 20.0625 C 16.917969 20.0625 16.824219 20.164062 16.824219 20.289062 Z M 11.792969 21.722656 L 16.191406 21.722656 L 16.191406 19.953125 C 16.191406 19.871094 16.125 19.804688 16.042969 19.804688 L 11.9375 19.804688 C 11.859375 19.804688 11.792969 19.871094 11.792969 19.953125 Z M 16.191406 22.097656 L 11.792969 22.097656 L 11.792969 22.613281 C 11.792969 22.65625 11.808594 22.691406 11.835938 22.71875 C 11.863281 22.746094 11.898438 22.761719 11.9375 22.761719 L 16.042969 22.761719 C 16.082031 22.761719 16.117188 22.746094 16.148438 22.71875 C 16.175781 22.691406 16.191406 22.65625 16.191406 22.613281 Z M 10.316406 17.617188 L 11.683594 14.988281 C 11.722656 14.914062 11.796875 14.871094 11.878906 14.871094 L 13.464844 14.871094 L 12.742188 17.617188 Z M 13.824219 14.871094 L 15.355469 14.871094 L 15.355469 17.617188 L 13.105469 17.617188 L 13.816406 14.914062 C 13.820312 14.902344 13.824219 14.886719 13.824219 14.871094 Z M 15.707031 14.871094 L 17.238281 14.871094 C 17.238281 14.886719 17.238281 14.902344 17.242188 14.914062 L 17.953125 17.617188 L 15.707031 17.617188 Z M 17.597656 14.871094 L 19.183594 14.871094 C 19.265625 14.871094 19.335938 14.914062 19.375 14.988281 L 20.746094 17.617188 L 18.320312 17.617188 Z M 20.828125 17.972656 C 20.738281 18.621094 20.183594 19.121094 19.511719 19.121094 C 18.839844 19.121094 18.28125 18.621094 18.195312 17.972656 Z M 18.171875 17.972656 C 18.085938 18.621094 17.53125 19.121094 16.859375 19.121094 C 16.1875 19.121094 15.628906 18.621094 15.542969 17.972656 Z M 15.519531 17.972656 C 15.433594 18.621094 14.878906 19.121094 14.203125 19.121094 C 13.53125 19.121094 12.976562 18.621094 12.890625 17.972656 Z M 12.867188 17.972656 C 12.777344 18.621094 12.222656 19.121094 11.550781 19.121094 C 10.878906 19.121094 10.320312 18.621094 10.234375 17.972656 Z M 12.867188 17.972656 " fill-opacity="1" fill-rule="evenodd"/></g><g fill="#000000" fill-opacity="1"><g transform="translate(30.160419, 18.624569)"><g><path d="M 2.984375 0.0625 C 2.503906 0.0625 2.070312 -0.015625 1.6875 -0.171875 C 1.300781 -0.328125 0.992188 -0.554688 0.765625 -0.859375 C 0.535156 -1.171875 0.410156 -1.546875 0.390625 -1.984375 L 2.125 -1.984375 C 2.144531 -1.734375 2.226562 -1.546875 2.375 -1.421875 C 2.519531 -1.296875 2.707031 -1.234375 2.9375 -1.234375 C 3.175781 -1.234375 3.363281 -1.285156 3.5 -1.390625 C 3.644531 -1.503906 3.71875 -1.660156 3.71875 -1.859375 C 3.71875 -2.015625 3.660156 -2.144531 3.546875 -2.25 C 3.441406 -2.363281 3.304688 -2.453125 3.140625 -2.515625 C 2.984375 -2.585938 2.753906 -2.671875 2.453125 -2.765625 C 2.023438 -2.890625 1.675781 -3.019531 1.40625 -3.15625 C 1.132812 -3.289062 0.898438 -3.484375 0.703125 -3.734375 C 0.515625 -3.992188 0.421875 -4.332031 0.421875 -4.75 C 0.421875 -5.375 0.644531 -5.859375 1.09375 -6.203125 C 1.539062 -6.554688 2.117188 -6.734375 2.828125 -6.734375 C 3.566406 -6.734375 4.160156 -6.554688 4.609375 -6.203125 C 5.054688 -5.859375 5.296875 -5.375 5.328125 -4.75 L 3.578125 -4.75 C 3.554688 -4.957031 3.472656 -5.125 3.328125 -5.25 C 3.191406 -5.375 3.007812 -5.4375 2.78125 -5.4375 C 2.582031 -5.4375 2.421875 -5.382812 2.296875 -5.28125 C 2.179688 -5.175781 2.125 -5.023438 2.125 -4.828125 C 2.125 -4.617188 2.222656 -4.453125 2.421875 -4.328125 C 2.628906 -4.210938 2.945312 -4.082031 3.375 -3.9375 C 3.800781 -3.789062 4.148438 -3.648438 4.421875 -3.515625 C 4.691406 -3.390625 4.921875 -3.203125 5.109375 -2.953125 C 5.304688 -2.703125 5.40625 -2.375 5.40625 -1.96875 C 5.40625 -1.59375 5.304688 -1.25 5.109375 -0.9375 C 4.921875 -0.632812 4.644531 -0.390625 4.28125 -0.203125 C 3.914062 -0.0234375 3.484375 0.0625 2.984375 0.0625 Z M 2.984375 0.0625 "/></g></g></g><g fill="#000000" fill-opacity="1"><g transform="translate(35.969601, 18.624569)"><g><path d="M 2.203125 -6.640625 L 2.203125 0 L 0.59375 0 L 0.59375 -6.640625 Z M 2.203125 -6.640625 "/></g></g></g><g fill="#000000" fill-opacity="1"><g transform="translate(38.756122, 18.624569)"><g><path d="M 4.984375 -4.53125 C 4.867188 -4.757812 4.695312 -4.929688 4.46875 -5.046875 C 4.25 -5.160156 3.988281 -5.21875 3.6875 -5.21875 C 3.164062 -5.21875 2.742188 -5.046875 2.421875 -4.703125 C 2.109375 -4.359375 1.953125 -3.898438 1.953125 -3.328125 C 1.953125 -2.710938 2.117188 -2.234375 2.453125 -1.890625 C 2.785156 -1.546875 3.238281 -1.375 3.8125 -1.375 C 4.21875 -1.375 4.554688 -1.472656 4.828125 -1.671875 C 5.097656 -1.878906 5.296875 -2.171875 5.421875 -2.546875 L 3.375 -2.546875 L 3.375 -3.75 L 6.890625 -3.75 L 6.890625 -2.234375 C 6.773438 -1.835938 6.570312 -1.460938 6.28125 -1.109375 C 5.988281 -0.765625 5.625 -0.484375 5.1875 -0.265625 C 4.75 -0.0546875 4.253906 0.046875 3.703125 0.046875 C 3.046875 0.046875 2.457031 -0.09375 1.9375 -0.375 C 1.425781 -0.664062 1.023438 -1.066406 0.734375 -1.578125 C 0.453125 -2.085938 0.3125 -2.671875 0.3125 -3.328125 C 0.3125 -3.984375 0.453125 -4.566406 0.734375 -5.078125 C 1.023438 -5.585938 1.425781 -5.988281 1.9375 -6.28125 C 2.445312 -6.570312 3.03125 -6.71875 3.6875 -6.71875 C 4.476562 -6.71875 5.144531 -6.523438 5.6875 -6.140625 C 6.238281 -5.753906 6.601562 -5.21875 6.78125 -4.53125 Z M 4.984375 -4.53125 "/></g></g></g><g fill="#000000" fill-opacity="1"><g transform="translate(45.95384, 18.624569)"><g/></g></g><g fill="#000000" fill-opacity="1"><g transform="translate(47.956358, 18.624569)"><g><path d="M 5.359375 -6.640625 L 5.359375 -5.34375 L 3.609375 -5.34375 L 3.609375 0 L 1.984375 0 L 1.984375 -5.34375 L 0.234375 -5.34375 L 0.234375 -6.640625 Z M 5.359375 -6.640625 "/></g></g></g><g fill="#000000" fill-opacity="1"><g transform="translate(53.53884, 18.624569)"><g><path d="M 3.71875 0.0625 C 3.09375 0.0625 2.519531 -0.078125 2 -0.359375 C 1.488281 -0.648438 1.078125 -1.054688 0.765625 -1.578125 C 0.460938 -2.097656 0.3125 -2.6875 0.3125 -3.34375 C 0.3125 -3.988281 0.460938 -4.566406 0.765625 -5.078125 C 1.078125 -5.597656 1.488281 -6.003906 2 -6.296875 C 2.519531 -6.585938 3.09375 -6.734375 3.71875 -6.734375 C 4.34375 -6.734375 4.914062 -6.585938 5.4375 -6.296875 C 5.957031 -6.003906 6.367188 -5.597656 6.671875 -5.078125 C 6.972656 -4.566406 7.125 -3.988281 7.125 -3.34375 C 7.125 -2.6875 6.96875 -2.097656 6.65625 -1.578125 C 6.351562 -1.054688 5.941406 -0.648438 5.421875 -0.359375 C 4.910156 -0.078125 4.34375 0.0625 3.71875 0.0625 Z M 3.71875 -1.40625 C 4.25 -1.40625 4.671875 -1.582031 4.984375 -1.9375 C 5.304688 -2.289062 5.46875 -2.757812 5.46875 -3.34375 C 5.46875 -3.925781 5.304688 -4.390625 4.984375 -4.734375 C 4.671875 -5.085938 4.25 -5.265625 3.71875 -5.265625 C 3.1875 -5.265625 2.757812 -5.085938 2.4375 -4.734375 C 2.125 -4.390625 1.96875 -3.925781 1.96875 -3.34375 C 1.96875 -2.75 2.125 -2.273438 2.4375 -1.921875 C 2.757812 -1.578125 3.1875 -1.40625 3.71875 -1.40625 Z M 3.71875 -1.40625 "/></g></g></g><g fill="#000000" fill-opacity="1"><g transform="translate(60.963248, 18.624569)"><g><path d="M 4.4375 0 L 2.203125 -2.9375 L 2.203125 0 L 0.59375 0 L 0.59375 -6.640625 L 2.203125 -6.640625 L 2.203125 -3.71875 L 4.421875 -6.640625 L 6.3125 -6.640625 L 3.75 -3.390625 L 6.40625 0 Z M 4.4375 0 "/></g></g></g><g fill="#000000" fill-opacity="1"><g transform="translate(67.546982, 18.624569)"><g><path d="M 3.71875 0.0625 C 3.09375 0.0625 2.519531 -0.078125 2 -0.359375 C 1.488281 -0.648438 1.078125 -1.054688 0.765625 -1.578125 C 0.460938 -2.097656 0.3125 -2.6875 0.3125 -3.34375 C 0.3125 -3.988281 0.460938 -4.566406 0.765625 -5.078125 C 1.078125 -5.597656 1.488281 -6.003906 2 -6.296875 C 2.519531 -6.585938 3.09375 -6.734375 3.71875 -6.734375 C 4.34375 -6.734375 4.914062 -6.585938 5.4375 -6.296875 C 5.957031 -6.003906 6.367188 -5.597656 6.671875 -5.078125 C 6.972656 -4.566406 7.125 -3.988281 7.125 -3.34375 C 7.125 -2.6875 6.96875 -2.097656 6.65625 -1.578125 C 6.351562 -1.054688 5.941406 -0.648438 5.421875 -0.359375 C 4.910156 -0.078125 4.34375 0.0625 3.71875 0.0625 Z M 3.71875 -1.40625 C 4.25 -1.40625 4.671875 -1.582031 4.984375 -1.9375 C 5.304688 -2.289062 5.46875 -2.757812 5.46875 -3.34375 C 5.46875 -3.925781 5.304688 -4.390625 4.984375 -4.734375 C 4.671875 -5.085938 4.25 -5.265625 3.71875 -5.265625 C 3.1875 -5.265625 2.757812 -5.085938 2.4375 -4.734375 C 2.125 -4.390625 1.96875 -3.925781 1.96875 -3.34375 C 1.96875 -2.75 2.125 -2.273438 2.4375 -1.921875 C 2.757812 -1.578125 3.1875 -1.40625 3.71875 -1.40625 Z M 3.71875 -1.40625 "/></g></g></g><g fill="#000000" fill-opacity="1"><g transform="translate(74.97139, 18.624569)"><g/></g></g><g fill="#000000" fill-opacity="1"><g transform="translate(76.973908, 18.624569)"><g><path d="M 2.984375 0.0625 C 2.503906 0.0625 2.070312 -0.015625 1.6875 -0.171875 C 1.300781 -0.328125 0.992188 -0.554688 0.765625 -0.859375 C 0.535156 -1.171875 0.410156 -1.546875 0.390625 -1.984375 L 2.125 -1.984375 C 2.144531 -1.734375 2.226562 -1.546875 2.375 -1.421875 C 2.519531 -1.296875 2.707031 -1.234375 2.9375 -1.234375 C 3.175781 -1.234375 3.363281 -1.285156 3.5 -1.390625 C 3.644531 -1.503906 3.71875 -1.660156 3.71875 -1.859375 C 3.71875 -2.015625 3.660156 -2.144531 3.546875 -2.25 C 3.441406 -2.363281 3.304688 -2.453125 3.140625 -2.515625 C 2.984375 -2.585938 2.753906 -2.671875 2.453125 -2.765625 C 2.023438 -2.890625 1.675781 -3.019531 1.40625 -3.15625 C 1.132812 -3.289062 0.898438 -3.484375 0.703125 -3.734375 C 0.515625 -3.992188 0.421875 -4.332031 0.421875 -4.75 C 0.421875 -5.375 0.644531 -5.859375 1.09375 -6.203125 C 1.539062 -6.554688 2.117188 -6.734375 2.828125 -6.734375 C 3.566406 -6.734375 4.160156 -6.554688 4.609375 -6.203125 C 5.054688 -5.859375 5.296875 -5.375 5.328125 -4.75 L 3.578125 -4.75 C 3.554688 -4.957031 3.472656 -5.125 3.328125 -5.25 C 3.191406 -5.375 3.007812 -5.4375 2.78125 -5.4375 C 2.582031 -5.4375 2.421875 -5.382812 2.296875 -5.28125 C 2.179688 -5.175781 2.125 -5.023438 2.125 -4.828125 C 2.125 -4.617188 2.222656 -4.453125 2.421875 -4.328125 C 2.628906 -4.210938 2.945312 -4.082031 3.375 -3.9375 C 3.800781 -3.789062 4.148438 -3.648438 4.421875 -3.515625 C 4.691406 -3.390625 4.921875 -3.203125 5.109375 -2.953125 C 5.304688 -2.703125 5.40625 -2.375 5.40625 -1.96875 C 5.40625 -1.59375 5.304688 -1.25 5.109375 -0.9375 C 4.921875 -0.632812 4.644531 -0.390625 4.28125 -0.203125 C 3.914062 -0.0234375 3.484375 0.0625 2.984375 0.0625 Z M 2.984375 0.0625 "/></g></g></g><g fill="#000000" fill-opacity="1"><g transform="translate(82.783091, 18.624569)"><g><path d="M 9.71875 -6.640625 L 7.984375 0 L 6.03125 0 L 4.96875 -4.375 L 3.875 0 L 1.921875 0 L 0.234375 -6.640625 L 1.96875 -6.640625 L 2.921875 -1.8125 L 4.109375 -6.640625 L 5.875 -6.640625 L 7.015625 -1.8125 L 7.984375 -6.640625 Z M 9.71875 -6.640625 "/></g></g></g><g fill="#000000" fill-opacity="1"><g transform="translate(92.720088, 18.624569)"><g><path d="M 4.71875 -1.171875 L 2.234375 -1.171875 L 1.84375 0 L 0.15625 0 L 2.546875 -6.640625 L 4.421875 -6.640625 L 6.828125 0 L 5.109375 0 Z M 4.296875 -2.421875 L 3.484375 -4.84375 L 2.671875 -2.421875 Z M 4.296875 -2.421875 "/></g></g></g><g fill="#000000" fill-opacity="1"><g transform="translate(99.681654, 18.624569)"><g><path d="M 2.203125 -1.25 L 4.3125 -1.25 L 4.3125 0 L 0.59375 0 L 0.59375 -6.640625 L 2.203125 -6.640625 Z M 2.203125 -1.25 "/></g></g></g><g fill="#000000" fill-opacity="1"><g transform="translate(104.187312, 18.624569)"><g><path d="M 4.71875 -1.171875 L 2.234375 -1.171875 L 1.84375 0 L 0.15625 0 L 2.546875 -6.640625 L 4.421875 -6.640625 L 6.828125 0 L 5.109375 0 Z M 4.296875 -2.421875 L 3.484375 -4.84375 L 2.671875 -2.421875 Z M 4.296875 -2.421875 "/></g></g></g><g fill="#000000" fill-opacity="1"><g transform="translate(111.148878, 18.624569)"><g><path d="M 6.28125 -6.640625 L 3.984375 -2.1875 L 3.984375 0 L 2.359375 0 L 2.359375 -2.1875 L 0.0625 -6.640625 L 1.90625 -6.640625 L 3.1875 -3.859375 L 4.46875 -6.640625 Z M 6.28125 -6.640625 "/></g></g></g><g fill="#000000" fill-opacity="1"><g transform="translate(117.487022, 18.624569)"><g><path d="M 4.71875 -1.171875 L 2.234375 -1.171875 L 1.84375 0 L 0.15625 0 L 2.546875 -6.640625 L 4.421875 -6.640625 L 6.828125 0 L 5.109375 0 Z M 4.296875 -2.421875 L 3.484375 -4.84375 L 2.671875 -2.421875 Z M 4.296875 -2.421875 "/></g></g></g><g fill="#000000" fill-opacity="1"><g transform="translate(124.448588, 18.624569)"><g><path d="M 6.515625 0 L 4.90625 0 L 2.203125 -4.09375 L 2.203125 0 L 0.59375 0 L 0.59375 -6.640625 L 2.203125 -6.640625 L 4.90625 -2.53125 L 4.90625 -6.640625 L 6.515625 -6.640625 Z M 6.515625 0 "/></g></g></g><g fill="#000000" fill-opacity="1"><g transform="translate(30.984235, 26.148682)"><g><path d="M 1.09375 0.03125 C 0.925781 0.03125 0.773438 0 0.640625 -0.0625 C 0.503906 -0.125 0.398438 -0.207031 0.328125 -0.3125 C 0.253906 -0.414062 0.210938 -0.539062 0.203125 -0.6875 L 0.5625 -0.6875 C 0.570312 -0.5625 0.617188 -0.457031 0.703125 -0.375 C 0.796875 -0.289062 0.925781 -0.25 1.09375 -0.25 C 1.25 -0.25 1.375 -0.289062 1.46875 -0.375 C 1.5625 -0.457031 1.609375 -0.5625 1.609375 -0.6875 C 1.609375 -0.78125 1.582031 -0.859375 1.53125 -0.921875 C 1.476562 -0.984375 1.410156 -1.03125 1.328125 -1.0625 C 1.242188 -1.09375 1.132812 -1.125 1 -1.15625 C 0.832031 -1.207031 0.695312 -1.253906 0.59375 -1.296875 C 0.488281 -1.335938 0.398438 -1.40625 0.328125 -1.5 C 0.253906 -1.59375 0.21875 -1.722656 0.21875 -1.890625 C 0.21875 -2.023438 0.253906 -2.144531 0.328125 -2.25 C 0.398438 -2.363281 0.5 -2.445312 0.625 -2.5 C 0.757812 -2.5625 0.910156 -2.59375 1.078125 -2.59375 C 1.316406 -2.59375 1.507812 -2.53125 1.65625 -2.40625 C 1.8125 -2.289062 1.898438 -2.132812 1.921875 -1.9375 L 1.546875 -1.9375 C 1.535156 -2.03125 1.484375 -2.113281 1.390625 -2.1875 C 1.304688 -2.269531 1.191406 -2.3125 1.046875 -2.3125 C 0.898438 -2.3125 0.78125 -2.273438 0.6875 -2.203125 C 0.601562 -2.128906 0.5625 -2.023438 0.5625 -1.890625 C 0.5625 -1.796875 0.585938 -1.71875 0.640625 -1.65625 C 0.691406 -1.601562 0.753906 -1.5625 0.828125 -1.53125 C 0.910156 -1.5 1.019531 -1.460938 1.15625 -1.421875 C 1.332031 -1.378906 1.46875 -1.332031 1.5625 -1.28125 C 1.664062 -1.238281 1.753906 -1.171875 1.828125 -1.078125 C 1.910156 -0.984375 1.953125 -0.859375 1.953125 -0.703125 C 1.953125 -0.578125 1.914062 -0.457031 1.84375 -0.34375 C 1.78125 -0.238281 1.679688 -0.148438 1.546875 -0.078125 C 1.421875 -0.00390625 1.269531 0.03125 1.09375 0.03125 Z M 1.09375 0.03125 "/></g></g></g><g fill="#000000" fill-opacity="1"><g transform="translate(33.141835, 26.148682)"><g><path d="M 0.453125 -2.34375 C 0.390625 -2.34375 0.335938 -2.363281 0.296875 -2.40625 C 0.253906 -2.445312 0.234375 -2.5 0.234375 -2.5625 C 0.234375 -2.625 0.253906 -2.675781 0.296875 -2.71875 C 0.335938 -2.769531 0.390625 -2.796875 0.453125 -2.796875 C 0.515625 -2.796875 0.566406 -2.769531 0.609375 -2.71875 C 0.648438 -2.675781 0.671875 -2.625 0.671875 -2.5625 C 0.671875 -2.5 0.648438 -2.445312 0.609375 -2.40625 C 0.566406 -2.363281 0.515625 -2.34375 0.453125 -2.34375 Z M 0.609375 -2.015625 L 0.609375 0 L 0.28125 0 L 0.28125 -2.015625 Z M 0.609375 -2.015625 "/></g></g></g><g fill="#000000" fill-opacity="1"><g transform="translate(34.046043, 26.148682)"><g><path d="M 1 0.03125 C 0.84375 0.03125 0.703125 0.00390625 0.578125 -0.046875 C 0.453125 -0.0976562 0.351562 -0.171875 0.28125 -0.265625 C 0.21875 -0.359375 0.179688 -0.46875 0.171875 -0.59375 L 0.515625 -0.59375 C 0.523438 -0.488281 0.570312 -0.40625 0.65625 -0.34375 C 0.738281 -0.28125 0.847656 -0.25 0.984375 -0.25 C 1.117188 -0.25 1.222656 -0.273438 1.296875 -0.328125 C 1.367188 -0.390625 1.40625 -0.460938 1.40625 -0.546875 C 1.40625 -0.628906 1.363281 -0.691406 1.28125 -0.734375 C 1.207031 -0.785156 1.085938 -0.832031 0.921875 -0.875 C 0.773438 -0.90625 0.65625 -0.941406 0.5625 -0.984375 C 0.46875 -1.023438 0.382812 -1.082031 0.3125 -1.15625 C 0.25 -1.238281 0.21875 -1.347656 0.21875 -1.484375 C 0.21875 -1.585938 0.242188 -1.679688 0.296875 -1.765625 C 0.359375 -1.847656 0.445312 -1.914062 0.5625 -1.96875 C 0.675781 -2.019531 0.804688 -2.046875 0.953125 -2.046875 C 1.171875 -2.046875 1.347656 -1.988281 1.484375 -1.875 C 1.628906 -1.757812 1.707031 -1.601562 1.71875 -1.40625 L 1.375 -1.40625 C 1.363281 -1.519531 1.320312 -1.609375 1.25 -1.671875 C 1.175781 -1.734375 1.070312 -1.765625 0.9375 -1.765625 C 0.820312 -1.765625 0.726562 -1.738281 0.65625 -1.6875 C 0.582031 -1.632812 0.546875 -1.566406 0.546875 -1.484375 C 0.546875 -1.421875 0.566406 -1.363281 0.609375 -1.3125 C 0.648438 -1.269531 0.703125 -1.234375 0.765625 -1.203125 C 0.835938 -1.179688 0.929688 -1.15625 1.046875 -1.125 C 1.191406 -1.09375 1.304688 -1.054688 1.390625 -1.015625 C 1.484375 -0.972656 1.5625 -0.914062 1.625 -0.84375 C 1.6875 -0.769531 1.722656 -0.671875 1.734375 -0.546875 C 1.734375 -0.429688 1.703125 -0.332031 1.640625 -0.25 C 1.578125 -0.164062 1.488281 -0.0976562 1.375 -0.046875 C 1.269531 0.00390625 1.144531 0.03125 1 0.03125 Z M 1 0.03125 "/></g></g></g><g fill="#000000" fill-opacity="1"><g transform="translate(35.964724, 26.148682)"><g><path d="M 0.6875 -1.734375 L 0.6875 -0.546875 C 0.6875 -0.453125 0.707031 -0.382812 0.75 -0.34375 C 0.789062 -0.300781 0.863281 -0.28125 0.96875 -0.28125 L 1.21875 -0.28125 L 1.21875 0 L 0.921875 0 C 0.734375 0 0.59375 -0.0390625 0.5 -0.125 C 0.40625 -0.207031 0.359375 -0.347656 0.359375 -0.546875 L 0.359375 -1.734375 L 0.09375 -1.734375 L 0.09375 -2.015625 L 0.359375 -2.015625 L 0.359375 -2.515625 L 0.6875 -2.515625 L 0.6875 -2.015625 L 1.21875 -2.015625 L 1.21875 -1.734375 Z M 0.6875 -1.734375 "/></g></g></g><g fill="#000000" fill-opacity="1"><g transform="translate(37.302655, 26.148682)"><g><path d="M 2.125 -1.078125 C 2.125 -1.015625 2.117188 -0.945312 2.109375 -0.875 L 0.5 -0.875 C 0.507812 -0.675781 0.578125 -0.519531 0.703125 -0.40625 C 0.828125 -0.300781 0.976562 -0.25 1.15625 -0.25 C 1.300781 -0.25 1.421875 -0.28125 1.515625 -0.34375 C 1.609375 -0.414062 1.675781 -0.507812 1.71875 -0.625 L 2.078125 -0.625 C 2.023438 -0.425781 1.914062 -0.265625 1.75 -0.140625 C 1.59375 -0.0234375 1.394531 0.03125 1.15625 0.03125 C 0.957031 0.03125 0.785156 -0.0078125 0.640625 -0.09375 C 0.492188 -0.175781 0.375 -0.296875 0.28125 -0.453125 C 0.195312 -0.617188 0.15625 -0.804688 0.15625 -1.015625 C 0.15625 -1.222656 0.195312 -1.40625 0.28125 -1.5625 C 0.363281 -1.71875 0.476562 -1.835938 0.625 -1.921875 C 0.78125 -2.003906 0.957031 -2.046875 1.15625 -2.046875 C 1.34375 -2.046875 1.507812 -2.003906 1.65625 -1.921875 C 1.800781 -1.835938 1.914062 -1.722656 2 -1.578125 C 2.082031 -1.429688 2.125 -1.265625 2.125 -1.078125 Z M 1.78125 -1.15625 C 1.78125 -1.28125 1.75 -1.390625 1.6875 -1.484375 C 1.632812 -1.578125 1.554688 -1.644531 1.453125 -1.6875 C 1.359375 -1.738281 1.253906 -1.765625 1.140625 -1.765625 C 0.972656 -1.765625 0.828125 -1.707031 0.703125 -1.59375 C 0.585938 -1.488281 0.519531 -1.34375 0.5 -1.15625 Z M 1.78125 -1.15625 "/></g></g></g><g fill="#000000" fill-opacity="1"><g transform="translate(39.581549, 26.148682)"><g><path d="M 2.703125 -2.046875 C 2.859375 -2.046875 3 -2.015625 3.125 -1.953125 C 3.25 -1.890625 3.34375 -1.789062 3.40625 -1.65625 C 3.476562 -1.53125 3.515625 -1.375 3.515625 -1.1875 L 3.515625 0 L 3.1875 0 L 3.1875 -1.140625 C 3.1875 -1.335938 3.132812 -1.488281 3.03125 -1.59375 C 2.9375 -1.707031 2.804688 -1.765625 2.640625 -1.765625 C 2.460938 -1.765625 2.320312 -1.707031 2.21875 -1.59375 C 2.113281 -1.476562 2.0625 -1.316406 2.0625 -1.109375 L 2.0625 0 L 1.734375 0 L 1.734375 -1.140625 C 1.734375 -1.335938 1.679688 -1.488281 1.578125 -1.59375 C 1.484375 -1.707031 1.351562 -1.765625 1.1875 -1.765625 C 1.007812 -1.765625 0.867188 -1.707031 0.765625 -1.59375 C 0.660156 -1.476562 0.609375 -1.316406 0.609375 -1.109375 L 0.609375 0 L 0.28125 0 L 0.28125 -2.015625 L 0.609375 -2.015625 L 0.609375 -1.71875 C 0.679688 -1.820312 0.769531 -1.898438 0.875 -1.953125 C 0.988281 -2.015625 1.113281 -2.046875 1.25 -2.046875 C 1.414062 -2.046875 1.5625 -2.007812 1.6875 -1.9375 C 1.820312 -1.863281 1.921875 -1.75 1.984375 -1.59375 C 2.046875 -1.738281 2.140625 -1.847656 2.265625 -1.921875 C 2.398438 -2.003906 2.546875 -2.046875 2.703125 -2.046875 Z M 2.703125 -2.046875 "/></g></g></g><g fill="#000000" fill-opacity="1"><g transform="translate(43.367458, 26.148682)"><g/></g></g><g fill="#000000" fill-opacity="1"><g transform="translate(44.348854, 26.148682)"><g><path d="M 0.609375 -2.5625 L 0.609375 0 L 0.28125 0 L 0.28125 -2.5625 Z M 0.609375 -2.5625 "/></g></g></g><g fill="#000000" fill-opacity="1"><g transform="translate(45.253063, 26.148682)"><g><path d="M 1.265625 -2.046875 C 1.503906 -2.046875 1.695312 -1.972656 1.84375 -1.828125 C 2 -1.679688 2.078125 -1.46875 2.078125 -1.1875 L 2.078125 0 L 1.75 0 L 1.75 -1.140625 C 1.75 -1.335938 1.695312 -1.488281 1.59375 -1.59375 C 1.5 -1.707031 1.363281 -1.765625 1.1875 -1.765625 C 1.007812 -1.765625 0.867188 -1.707031 0.765625 -1.59375 C 0.660156 -1.476562 0.609375 -1.316406 0.609375 -1.109375 L 0.609375 0 L 0.28125 0 L 0.28125 -2.015625 L 0.609375 -2.015625 L 0.609375 -1.71875 C 0.679688 -1.820312 0.773438 -1.898438 0.890625 -1.953125 C 1.003906 -2.015625 1.128906 -2.046875 1.265625 -2.046875 Z M 1.265625 -2.046875 "/></g></g></g><g fill="#000000" fill-opacity="1"><g transform="translate(47.605471, 26.148682)"><g><path d="M 1.109375 -1.734375 L 0.671875 -1.734375 L 0.671875 0 L 0.34375 0 L 0.34375 -1.734375 L 0.078125 -1.734375 L 0.078125 -2.015625 L 0.34375 -2.015625 L 0.34375 -2.15625 C 0.34375 -2.382812 0.398438 -2.550781 0.515625 -2.65625 C 0.628906 -2.757812 0.816406 -2.8125 1.078125 -2.8125 L 1.078125 -2.53125 C 0.929688 -2.53125 0.828125 -2.5 0.765625 -2.4375 C 0.703125 -2.382812 0.671875 -2.289062 0.671875 -2.15625 L 0.671875 -2.015625 L 1.109375 -2.015625 Z M 1.109375 -1.734375 "/></g></g></g><g fill="#000000" fill-opacity="1"><g transform="translate(48.814756, 26.148682)"><g><path d="M 1.15625 0.03125 C 0.96875 0.03125 0.796875 -0.0078125 0.640625 -0.09375 C 0.492188 -0.175781 0.375 -0.296875 0.28125 -0.453125 C 0.195312 -0.617188 0.15625 -0.804688 0.15625 -1.015625 C 0.15625 -1.210938 0.195312 -1.390625 0.28125 -1.546875 C 0.375 -1.710938 0.5 -1.835938 0.65625 -1.921875 C 0.8125 -2.003906 0.984375 -2.046875 1.171875 -2.046875 C 1.367188 -2.046875 1.539062 -2.003906 1.6875 -1.921875 C 1.84375 -1.835938 1.960938 -1.71875 2.046875 -1.5625 C 2.140625 -1.40625 2.1875 -1.222656 2.1875 -1.015625 C 2.1875 -0.804688 2.140625 -0.617188 2.046875 -0.453125 C 1.960938 -0.296875 1.84375 -0.175781 1.6875 -0.09375 C 1.53125 -0.0078125 1.351562 0.03125 1.15625 0.03125 Z M 1.15625 -0.265625 C 1.28125 -0.265625 1.394531 -0.289062 1.5 -0.34375 C 1.601562 -0.394531 1.6875 -0.476562 1.75 -0.59375 C 1.8125 -0.707031 1.84375 -0.847656 1.84375 -1.015625 C 1.84375 -1.171875 1.8125 -1.304688 1.75 -1.421875 C 1.6875 -1.535156 1.601562 -1.617188 1.5 -1.671875 C 1.394531 -1.722656 1.285156 -1.75 1.171875 -1.75 C 1.046875 -1.75 0.929688 -1.722656 0.828125 -1.671875 C 0.734375 -1.617188 0.65625 -1.535156 0.59375 -1.421875 C 0.53125 -1.304688 0.5 -1.171875 0.5 -1.015625 C 0.5 -0.847656 0.523438 -0.707031 0.578125 -0.59375 C 0.640625 -0.476562 0.722656 -0.394531 0.828125 -0.34375 C 0.929688 -0.289062 1.039062 -0.265625 1.15625 -0.265625 Z M 1.15625 -0.265625 "/></g></g></g><g fill="#000000" fill-opacity="1"><g transform="translate(51.167164, 26.148682)"><g><path d="M 0.609375 -1.6875 C 0.671875 -1.800781 0.753906 -1.890625 0.859375 -1.953125 C 0.972656 -2.015625 1.109375 -2.046875 1.265625 -2.046875 L 1.265625 -1.703125 L 1.171875 -1.703125 C 0.796875 -1.703125 0.609375 -1.5 0.609375 -1.09375 L 0.609375 0 L 0.28125 0 L 0.28125 -2.015625 L 0.609375 -2.015625 Z M 0.609375 -1.6875 "/></g></g></g><g fill="#000000" fill-opacity="1"><g transform="translate(52.538176, 26.148682)"><g><path d="M 2.703125 -2.046875 C 2.859375 -2.046875 3 -2.015625 3.125 -1.953125 C 3.25 -1.890625 3.34375 -1.789062 3.40625 -1.65625 C 3.476562 -1.53125 3.515625 -1.375 3.515625 -1.1875 L 3.515625 0 L 3.1875 0 L 3.1875 -1.140625 C 3.1875 -1.335938 3.132812 -1.488281 3.03125 -1.59375 C 2.9375 -1.707031 2.804688 -1.765625 2.640625 -1.765625 C 2.460938 -1.765625 2.320312 -1.707031 2.21875 -1.59375 C 2.113281 -1.476562 2.0625 -1.316406 2.0625 -1.109375 L 2.0625 0 L 1.734375 0 L 1.734375 -1.140625 C 1.734375 -1.335938 1.679688 -1.488281 1.578125 -1.59375 C 1.484375 -1.707031 1.351562 -1.765625 1.1875 -1.765625 C 1.007812 -1.765625 0.867188 -1.707031 0.765625 -1.59375 C 0.660156 -1.476562 0.609375 -1.316406 0.609375 -1.109375 L 0.609375 0 L 0.28125 0 L 0.28125 -2.015625 L 0.609375 -2.015625 L 0.609375 -1.71875 C 0.679688 -1.820312 0.769531 -1.898438 0.875 -1.953125 C 0.988281 -2.015625 1.113281 -2.046875 1.25 -2.046875 C 1.414062 -2.046875 1.5625 -2.007812 1.6875 -1.9375 C 1.820312 -1.863281 1.921875 -1.75 1.984375 -1.59375 C 2.046875 -1.738281 2.140625 -1.847656 2.265625 -1.921875 C 2.398438 -2.003906 2.546875 -2.046875 2.703125 -2.046875 Z M 2.703125 -2.046875 "/></g></g></g><g fill="#000000" fill-opacity="1"><g transform="translate(56.324084, 26.148682)"><g><path d="M 0.15625 -1.015625 C 0.15625 -1.222656 0.195312 -1.398438 0.28125 -1.546875 C 0.363281 -1.703125 0.476562 -1.820312 0.625 -1.90625 C 0.769531 -2 0.929688 -2.046875 1.109375 -2.046875 C 1.285156 -2.046875 1.4375 -2.003906 1.5625 -1.921875 C 1.695312 -1.847656 1.796875 -1.753906 1.859375 -1.640625 L 1.859375 -2.015625 L 2.203125 -2.015625 L 2.203125 0 L 1.859375 0 L 1.859375 -0.375 C 1.796875 -0.257812 1.695312 -0.160156 1.5625 -0.078125 C 1.4375 -0.00390625 1.285156 0.03125 1.109375 0.03125 C 0.929688 0.03125 0.769531 -0.0078125 0.625 -0.09375 C 0.476562 -0.1875 0.363281 -0.3125 0.28125 -0.46875 C 0.195312 -0.625 0.15625 -0.804688 0.15625 -1.015625 Z M 1.859375 -1.015625 C 1.859375 -1.160156 1.828125 -1.289062 1.765625 -1.40625 C 1.703125 -1.519531 1.617188 -1.601562 1.515625 -1.65625 C 1.410156 -1.71875 1.296875 -1.75 1.171875 -1.75 C 1.046875 -1.75 0.929688 -1.71875 0.828125 -1.65625 C 0.734375 -1.601562 0.65625 -1.519531 0.59375 -1.40625 C 0.53125 -1.289062 0.5 -1.160156 0.5 -1.015625 C 0.5 -0.859375 0.53125 -0.722656 0.59375 -0.609375 C 0.65625 -0.492188 0.734375 -0.40625 0.828125 -0.34375 C 0.929688 -0.289062 1.046875 -0.265625 1.171875 -0.265625 C 1.296875 -0.265625 1.410156 -0.289062 1.515625 -0.34375 C 1.617188 -0.40625 1.703125 -0.492188 1.765625 -0.609375 C 1.828125 -0.722656 1.859375 -0.859375 1.859375 -1.015625 Z M 1.859375 -1.015625 "/></g></g></g><g fill="#000000" fill-opacity="1"><g transform="translate(58.808816, 26.148682)"><g><path d="M 1 0.03125 C 0.84375 0.03125 0.703125 0.00390625 0.578125 -0.046875 C 0.453125 -0.0976562 0.351562 -0.171875 0.28125 -0.265625 C 0.21875 -0.359375 0.179688 -0.46875 0.171875 -0.59375 L 0.515625 -0.59375 C 0.523438 -0.488281 0.570312 -0.40625 0.65625 -0.34375 C 0.738281 -0.28125 0.847656 -0.25 0.984375 -0.25 C 1.117188 -0.25 1.222656 -0.273438 1.296875 -0.328125 C 1.367188 -0.390625 1.40625 -0.460938 1.40625 -0.546875 C 1.40625 -0.628906 1.363281 -0.691406 1.28125 -0.734375 C 1.207031 -0.785156 1.085938 -0.832031 0.921875 -0.875 C 0.773438 -0.90625 0.65625 -0.941406 0.5625 -0.984375 C 0.46875 -1.023438 0.382812 -1.082031 0.3125 -1.15625 C 0.25 -1.238281 0.21875 -1.347656 0.21875 -1.484375 C 0.21875 -1.585938 0.242188 -1.679688 0.296875 -1.765625 C 0.359375 -1.847656 0.445312 -1.914062 0.5625 -1.96875 C 0.675781 -2.019531 0.804688 -2.046875 0.953125 -2.046875 C 1.171875 -2.046875 1.347656 -1.988281 1.484375 -1.875 C 1.628906 -1.757812 1.707031 -1.601562 1.71875 -1.40625 L 1.375 -1.40625 C 1.363281 -1.519531 1.320312 -1.609375 1.25 -1.671875 C 1.175781 -1.734375 1.070312 -1.765625 0.9375 -1.765625 C 0.820312 -1.765625 0.726562 -1.738281 0.65625 -1.6875 C 0.582031 -1.632812 0.546875 -1.566406 0.546875 -1.484375 C 0.546875 -1.421875 0.566406 -1.363281 0.609375 -1.3125 C 0.648438 -1.269531 0.703125 -1.234375 0.765625 -1.203125 C 0.835938 -1.179688 0.929688 -1.15625 1.046875 -1.125 C 1.191406 -1.09375 1.304688 -1.054688 1.390625 -1.015625 C 1.484375 -0.972656 1.5625 -0.914062 1.625 -0.84375 C 1.6875 -0.769531 1.722656 -0.671875 1.734375 -0.546875 C 1.734375 -0.429688 1.703125 -0.332031 1.640625 -0.25 C 1.578125 -0.164062 1.488281 -0.0976562 1.375 -0.046875 C 1.269531 0.00390625 1.144531 0.03125 1 0.03125 Z M 1 0.03125 "/></g></g></g><g fill="#000000" fill-opacity="1"><g transform="translate(60.727497, 26.148682)"><g><path d="M 0.453125 -2.34375 C 0.390625 -2.34375 0.335938 -2.363281 0.296875 -2.40625 C 0.253906 -2.445312 0.234375 -2.5 0.234375 -2.5625 C 0.234375 -2.625 0.253906 -2.675781 0.296875 -2.71875 C 0.335938 -2.769531 0.390625 -2.796875 0.453125 -2.796875 C 0.515625 -2.796875 0.566406 -2.769531 0.609375 -2.71875 C 0.648438 -2.675781 0.671875 -2.625 0.671875 -2.5625 C 0.671875 -2.5 0.648438 -2.445312 0.609375 -2.40625 C 0.566406 -2.363281 0.515625 -2.34375 0.453125 -2.34375 Z M 0.609375 -2.015625 L 0.609375 0 L 0.28125 0 L 0.28125 -2.015625 Z M 0.609375 -2.015625 "/></g></g></g><g fill="#000000" fill-opacity="1"><g transform="translate(61.631706, 26.148682)"><g/></g></g><g fill="#000000" fill-opacity="1"><g transform="translate(62.613102, 26.148682)"><g><path d="M 2.21875 -1.8125 C 2.144531 -1.96875 2.039062 -2.082031 1.90625 -2.15625 C 1.78125 -2.238281 1.625 -2.28125 1.4375 -2.28125 C 1.257812 -2.28125 1.097656 -2.238281 0.953125 -2.15625 C 0.816406 -2.082031 0.707031 -1.96875 0.625 -1.8125 C 0.539062 -1.65625 0.5 -1.476562 0.5 -1.28125 C 0.5 -1.082031 0.539062 -0.90625 0.625 -0.75 C 0.707031 -0.601562 0.816406 -0.488281 0.953125 -0.40625 C 1.097656 -0.320312 1.257812 -0.28125 1.4375 -0.28125 C 1.6875 -0.28125 1.890625 -0.351562 2.046875 -0.5 C 2.210938 -0.65625 2.3125 -0.859375 2.34375 -1.109375 L 1.328125 -1.109375 L 1.328125 -1.375 L 2.703125 -1.375 L 2.703125 -1.125 C 2.679688 -0.914062 2.613281 -0.722656 2.5 -0.546875 C 2.382812 -0.367188 2.234375 -0.226562 2.046875 -0.125 C 1.867188 -0.03125 1.664062 0.015625 1.4375 0.015625 C 1.207031 0.015625 0.992188 -0.0351562 0.796875 -0.140625 C 0.597656 -0.253906 0.441406 -0.410156 0.328125 -0.609375 C 0.210938 -0.804688 0.15625 -1.03125 0.15625 -1.28125 C 0.15625 -1.53125 0.210938 -1.753906 0.328125 -1.953125 C 0.441406 -2.148438 0.597656 -2.304688 0.796875 -2.421875 C 0.992188 -2.535156 1.207031 -2.59375 1.4375 -2.59375 C 1.707031 -2.59375 1.945312 -2.523438 2.15625 -2.390625 C 2.375 -2.253906 2.53125 -2.0625 2.625 -1.8125 Z M 2.21875 -1.8125 "/></g></g></g><g fill="#000000" fill-opacity="1"><g transform="translate(65.472746, 26.148682)"><g><path d="M 2.125 -1.078125 C 2.125 -1.015625 2.117188 -0.945312 2.109375 -0.875 L 0.5 -0.875 C 0.507812 -0.675781 0.578125 -0.519531 0.703125 -0.40625 C 0.828125 -0.300781 0.976562 -0.25 1.15625 -0.25 C 1.300781 -0.25 1.421875 -0.28125 1.515625 -0.34375 C 1.609375 -0.414062 1.675781 -0.507812 1.71875 -0.625 L 2.078125 -0.625 C 2.023438 -0.425781 1.914062 -0.265625 1.75 -0.140625 C 1.59375 -0.0234375 1.394531 0.03125 1.15625 0.03125 C 0.957031 0.03125 0.785156 -0.0078125 0.640625 -0.09375 C 0.492188 -0.175781 0.375 -0.296875 0.28125 -0.453125 C 0.195312 -0.617188 0.15625 -0.804688 0.15625 -1.015625 C 0.15625 -1.222656 0.195312 -1.40625 0.28125 -1.5625 C 0.363281 -1.71875 0.476562 -1.835938 0.625 -1.921875 C 0.78125 -2.003906 0.957031 -2.046875 1.15625 -2.046875 C 1.34375 -2.046875 1.507812 -2.003906 1.65625 -1.921875 C 1.800781 -1.835938 1.914062 -1.722656 2 -1.578125 C 2.082031 -1.429688 2.125 -1.265625 2.125 -1.078125 Z M 1.78125 -1.15625 C 1.78125 -1.28125 1.75 -1.390625 1.6875 -1.484375 C 1.632812 -1.578125 1.554688 -1.644531 1.453125 -1.6875 C 1.359375 -1.738281 1.253906 -1.765625 1.140625 -1.765625 C 0.972656 -1.765625 0.828125 -1.707031 0.703125 -1.59375 C 0.585938 -1.488281 0.519531 -1.34375 0.5 -1.15625 Z M 1.78125 -1.15625 "/></g></g></g><g fill="#000000" fill-opacity="1"><g transform="translate(67.75164, 26.148682)"><g><path d="M 1.15625 0.03125 C 0.96875 0.03125 0.796875 -0.0078125 0.640625 -0.09375 C 0.492188 -0.175781 0.375 -0.296875 0.28125 -0.453125 C 0.195312 -0.617188 0.15625 -0.804688 0.15625 -1.015625 C 0.15625 -1.210938 0.195312 -1.390625 0.28125 -1.546875 C 0.375 -1.710938 0.5 -1.835938 0.65625 -1.921875 C 0.8125 -2.003906 0.984375 -2.046875 1.171875 -2.046875 C 1.367188 -2.046875 1.539062 -2.003906 1.6875 -1.921875 C 1.84375 -1.835938 1.960938 -1.71875 2.046875 -1.5625 C 2.140625 -1.40625 2.1875 -1.222656 2.1875 -1.015625 C 2.1875 -0.804688 2.140625 -0.617188 2.046875 -0.453125 C 1.960938 -0.296875 1.84375 -0.175781 1.6875 -0.09375 C 1.53125 -0.0078125 1.351562 0.03125 1.15625 0.03125 Z M 1.15625 -0.265625 C 1.28125 -0.265625 1.394531 -0.289062 1.5 -0.34375 C 1.601562 -0.394531 1.6875 -0.476562 1.75 -0.59375 C 1.8125 -0.707031 1.84375 -0.847656 1.84375 -1.015625 C 1.84375 -1.171875 1.8125 -1.304688 1.75 -1.421875 C 1.6875 -1.535156 1.601562 -1.617188 1.5 -1.671875 C 1.394531 -1.722656 1.285156 -1.75 1.171875 -1.75 C 1.046875 -1.75 0.929688 -1.722656 0.828125 -1.671875 C 0.734375 -1.617188 0.65625 -1.535156 0.59375 -1.421875 C 0.53125 -1.304688 0.5 -1.171875 0.5 -1.015625 C 0.5 -0.847656 0.523438 -0.707031 0.578125 -0.59375 C 0.640625 -0.476562 0.722656 -0.394531 0.828125 -0.34375 C 0.929688 -0.289062 1.039062 -0.265625 1.15625 -0.265625 Z M 1.15625 -0.265625 "/></g></g></g><g fill="#000000" fill-opacity="1"><g transform="translate(70.104048, 26.148682)"><g><path d="M 1.109375 -2.046875 C 1.285156 -2.046875 1.4375 -2.003906 1.5625 -1.921875 C 1.695312 -1.847656 1.796875 -1.753906 1.859375 -1.640625 L 1.859375 -2.015625 L 2.203125 -2.015625 L 2.203125 0.046875 C 2.203125 0.222656 2.160156 0.382812 2.078125 0.53125 C 2.003906 0.675781 1.894531 0.785156 1.75 0.859375 C 1.601562 0.941406 1.429688 0.984375 1.234375 0.984375 C 0.972656 0.984375 0.753906 0.921875 0.578125 0.796875 C 0.398438 0.671875 0.296875 0.503906 0.265625 0.296875 L 0.59375 0.296875 C 0.632812 0.421875 0.710938 0.519531 0.828125 0.59375 C 0.941406 0.664062 1.078125 0.703125 1.234375 0.703125 C 1.421875 0.703125 1.570312 0.644531 1.6875 0.53125 C 1.800781 0.414062 1.859375 0.253906 1.859375 0.046875 L 1.859375 -0.375 C 1.796875 -0.257812 1.695312 -0.160156 1.5625 -0.078125 C 1.4375 -0.00390625 1.285156 0.03125 1.109375 0.03125 C 0.929688 0.03125 0.769531 -0.0078125 0.625 -0.09375 C 0.476562 -0.1875 0.363281 -0.3125 0.28125 -0.46875 C 0.195312 -0.625 0.15625 -0.804688 0.15625 -1.015625 C 0.15625 -1.222656 0.195312 -1.398438 0.28125 -1.546875 C 0.363281 -1.703125 0.476562 -1.820312 0.625 -1.90625 C 0.769531 -2 0.929688 -2.046875 1.109375 -2.046875 Z M 1.859375 -1.015625 C 1.859375 -1.160156 1.828125 -1.289062 1.765625 -1.40625 C 1.703125 -1.519531 1.617188 -1.601562 1.515625 -1.65625 C 1.410156 -1.71875 1.296875 -1.75 1.171875 -1.75 C 1.046875 -1.75 0.929688 -1.71875 0.828125 -1.65625 C 0.734375 -1.601562 0.65625 -1.519531 0.59375 -1.40625 C 0.53125 -1.289062 0.5 -1.160156 0.5 -1.015625 C 0.5 -0.859375 0.53125 -0.722656 0.59375 -0.609375 C 0.65625 -0.492188 0.734375 -0.40625 0.828125 -0.34375 C 0.929688 -0.289062 1.046875 -0.265625 1.171875 -0.265625 C 1.296875 -0.265625 1.410156 -0.289062 1.515625 -0.34375 C 1.617188 -0.40625 1.703125 -0.492188 1.765625 -0.609375 C 1.828125 -0.722656 1.859375 -0.859375 1.859375 -1.015625 Z M 1.859375 -1.015625 "/></g></g></g><g fill="#000000" fill-opacity="1"><g transform="translate(72.58878, 26.148682)"><g><path d="M 0.609375 -1.6875 C 0.671875 -1.800781 0.753906 -1.890625 0.859375 -1.953125 C 0.972656 -2.015625 1.109375 -2.046875 1.265625 -2.046875 L 1.265625 -1.703125 L 1.171875 -1.703125 C 0.796875 -1.703125 0.609375 -1.5 0.609375 -1.09375 L 0.609375 0 L 0.28125 0 L 0.28125 -2.015625 L 0.609375 -2.015625 Z M 0.609375 -1.6875 "/></g></g></g><g fill="#000000" fill-opacity="1"><g transform="translate(73.959792, 26.148682)"><g><path d="M 0.15625 -1.015625 C 0.15625 -1.222656 0.195312 -1.398438 0.28125 -1.546875 C 0.363281 -1.703125 0.476562 -1.820312 0.625 -1.90625 C 0.769531 -2 0.929688 -2.046875 1.109375 -2.046875 C 1.285156 -2.046875 1.4375 -2.003906 1.5625 -1.921875 C 1.695312 -1.847656 1.796875 -1.753906 1.859375 -1.640625 L 1.859375 -2.015625 L 2.203125 -2.015625 L 2.203125 0 L 1.859375 0 L 1.859375 -0.375 C 1.796875 -0.257812 1.695312 -0.160156 1.5625 -0.078125 C 1.4375 -0.00390625 1.285156 0.03125 1.109375 0.03125 C 0.929688 0.03125 0.769531 -0.0078125 0.625 -0.09375 C 0.476562 -0.1875 0.363281 -0.3125 0.28125 -0.46875 C 0.195312 -0.625 0.15625 -0.804688 0.15625 -1.015625 Z M 1.859375 -1.015625 C 1.859375 -1.160156 1.828125 -1.289062 1.765625 -1.40625 C 1.703125 -1.519531 1.617188 -1.601562 1.515625 -1.65625 C 1.410156 -1.71875 1.296875 -1.75 1.171875 -1.75 C 1.046875 -1.75 0.929688 -1.71875 0.828125 -1.65625 C 0.734375 -1.601562 0.65625 -1.519531 0.59375 -1.40625 C 0.53125 -1.289062 0.5 -1.160156 0.5 -1.015625 C 0.5 -0.859375 0.53125 -0.722656 0.59375 -0.609375 C 0.65625 -0.492188 0.734375 -0.40625 0.828125 -0.34375 C 0.929688 -0.289062 1.046875 -0.265625 1.171875 -0.265625 C 1.296875 -0.265625 1.410156 -0.289062 1.515625 -0.34375 C 1.617188 -0.40625 1.703125 -0.492188 1.765625 -0.609375 C 1.828125 -0.722656 1.859375 -0.859375 1.859375 -1.015625 Z M 1.859375 -1.015625 "/></g></g></g><g fill="#000000" fill-opacity="1"><g transform="translate(76.444524, 26.148682)"><g><path d="M 1.109375 -1.734375 L 0.671875 -1.734375 L 0.671875 0 L 0.34375 0 L 0.34375 -1.734375 L 0.078125 -1.734375 L 0.078125 -2.015625 L 0.34375 -2.015625 L 0.34375 -2.15625 C 0.34375 -2.382812 0.398438 -2.550781 0.515625 -2.65625 C 0.628906 -2.757812 0.816406 -2.8125 1.078125 -2.8125 L 1.078125 -2.53125 C 0.929688 -2.53125 0.828125 -2.5 0.765625 -2.4375 C 0.703125 -2.382812 0.671875 -2.289062 0.671875 -2.15625 L 0.671875 -2.015625 L 1.109375 -2.015625 Z M 1.109375 -1.734375 "/></g></g></g><g fill="#000000" fill-opacity="1"><g transform="translate(77.653809, 26.148682)"><g><path d="M 0.453125 -2.34375 C 0.390625 -2.34375 0.335938 -2.363281 0.296875 -2.40625 C 0.253906 -2.445312 0.234375 -2.5 0.234375 -2.5625 C 0.234375 -2.625 0.253906 -2.675781 0.296875 -2.71875 C 0.335938 -2.769531 0.390625 -2.796875 0.453125 -2.796875 C 0.515625 -2.796875 0.566406 -2.769531 0.609375 -2.71875 C 0.648438 -2.675781 0.671875 -2.625 0.671875 -2.5625 C 0.671875 -2.5 0.648438 -2.445312 0.609375 -2.40625 C 0.566406 -2.363281 0.515625 -2.34375 0.453125 -2.34375 Z M 0.609375 -2.015625 L 0.609375 0 L 0.28125 0 L 0.28125 -2.015625 Z M 0.609375 -2.015625 "/></g></g></g><g fill="#000000" fill-opacity="1"><g transform="translate(78.558018, 26.148682)"><g><path d="M 1 0.03125 C 0.84375 0.03125 0.703125 0.00390625 0.578125 -0.046875 C 0.453125 -0.0976562 0.351562 -0.171875 0.28125 -0.265625 C 0.21875 -0.359375 0.179688 -0.46875 0.171875 -0.59375 L 0.515625 -0.59375 C 0.523438 -0.488281 0.570312 -0.40625 0.65625 -0.34375 C 0.738281 -0.28125 0.847656 -0.25 0.984375 -0.25 C 1.117188 -0.25 1.222656 -0.273438 1.296875 -0.328125 C 1.367188 -0.390625 1.40625 -0.460938 1.40625 -0.546875 C 1.40625 -0.628906 1.363281 -0.691406 1.28125 -0.734375 C 1.207031 -0.785156 1.085938 -0.832031 0.921875 -0.875 C 0.773438 -0.90625 0.65625 -0.941406 0.5625 -0.984375 C 0.46875 -1.023438 0.382812 -1.082031 0.3125 -1.15625 C 0.25 -1.238281 0.21875 -1.347656 0.21875 -1.484375 C 0.21875 -1.585938 0.242188 -1.679688 0.296875 -1.765625 C 0.359375 -1.847656 0.445312 -1.914062 0.5625 -1.96875 C 0.675781 -2.019531 0.804688 -2.046875 0.953125 -2.046875 C 1.171875 -2.046875 1.347656 -1.988281 1.484375 -1.875 C 1.628906 -1.757812 1.707031 -1.601562 1.71875 -1.40625 L 1.375 -1.40625 C 1.363281 -1.519531 1.320312 -1.609375 1.25 -1.671875 C 1.175781 -1.734375 1.070312 -1.765625 0.9375 -1.765625 C 0.820312 -1.765625 0.726562 -1.738281 0.65625 -1.6875 C 0.582031 -1.632812 0.546875 -1.566406 0.546875 -1.484375 C 0.546875 -1.421875 0.566406 -1.363281 0.609375 -1.3125 C 0.648438 -1.269531 0.703125 -1.234375 0.765625 -1.203125 C 0.835938 -1.179688 0.929688 -1.15625 1.046875 -1.125 C 1.191406 -1.09375 1.304688 -1.054688 1.390625 -1.015625 C 1.484375 -0.972656 1.5625 -0.914062 1.625 -0.84375 C 1.6875 -0.769531 1.722656 -0.671875 1.734375 -0.546875 C 1.734375 -0.429688 1.703125 -0.332031 1.640625 -0.25 C 1.578125 -0.164062 1.488281 -0.0976562 1.375 -0.046875 C 1.269531 0.00390625 1.144531 0.03125 1 0.03125 Z M 1 0.03125 "/></g></g></g><g fill="#000000" fill-opacity="1"><g transform="translate(80.476699, 26.148682)"><g/></g></g><g fill="#000000" fill-opacity="1"><g transform="translate(81.458095, 26.148682)"><g><path d="M 1.859375 -2.5625 L 1.859375 -2.28125 L 1.15625 -2.28125 L 1.15625 0 L 0.828125 0 L 0.828125 -2.28125 L 0.125 -2.28125 L 0.125 -2.5625 Z M 1.859375 -2.5625 "/></g></g></g><g fill="#000000" fill-opacity="1"><g transform="translate(83.446617, 26.148682)"><g><path d="M 1.15625 0.03125 C 0.96875 0.03125 0.796875 -0.0078125 0.640625 -0.09375 C 0.492188 -0.175781 0.375 -0.296875 0.28125 -0.453125 C 0.195312 -0.617188 0.15625 -0.804688 0.15625 -1.015625 C 0.15625 -1.210938 0.195312 -1.390625 0.28125 -1.546875 C 0.375 -1.710938 0.5 -1.835938 0.65625 -1.921875 C 0.8125 -2.003906 0.984375 -2.046875 1.171875 -2.046875 C 1.367188 -2.046875 1.539062 -2.003906 1.6875 -1.921875 C 1.84375 -1.835938 1.960938 -1.71875 2.046875 -1.5625 C 2.140625 -1.40625 2.1875 -1.222656 2.1875 -1.015625 C 2.1875 -0.804688 2.140625 -0.617188 2.046875 -0.453125 C 1.960938 -0.296875 1.84375 -0.175781 1.6875 -0.09375 C 1.53125 -0.0078125 1.351562 0.03125 1.15625 0.03125 Z M 1.15625 -0.265625 C 1.28125 -0.265625 1.394531 -0.289062 1.5 -0.34375 C 1.601562 -0.394531 1.6875 -0.476562 1.75 -0.59375 C 1.8125 -0.707031 1.84375 -0.847656 1.84375 -1.015625 C 1.84375 -1.171875 1.8125 -1.304688 1.75 -1.421875 C 1.6875 -1.535156 1.601562 -1.617188 1.5 -1.671875 C 1.394531 -1.722656 1.285156 -1.75 1.171875 -1.75 C 1.046875 -1.75 0.929688 -1.722656 0.828125 -1.671875 C 0.734375 -1.617188 0.65625 -1.535156 0.59375 -1.421875 C 0.53125 -1.304688 0.5 -1.171875 0.5 -1.015625 C 0.5 -0.847656 0.523438 -0.707031 0.578125 -0.59375 C 0.640625 -0.476562 0.722656 -0.394531 0.828125 -0.34375 C 0.929688 -0.289062 1.039062 -0.265625 1.15625 -0.265625 Z M 1.15625 -0.265625 "/></g></g></g><g fill="#000000" fill-opacity="1"><g transform="translate(85.799025, 26.148682)"><g><path d="M 1.40625 0 L 0.609375 -0.890625 L 0.609375 0 L 0.28125 0 L 0.28125 -2.71875 L 0.609375 -2.71875 L 0.609375 -1.125 L 1.390625 -2.015625 L 1.859375 -2.015625 L 0.90625 -1.015625 L 1.859375 0 Z M 1.40625 0 "/></g></g></g><g fill="#000000" fill-opacity="1"><g transform="translate(87.691977, 26.148682)"><g><path d="M 1.15625 0.03125 C 0.96875 0.03125 0.796875 -0.0078125 0.640625 -0.09375 C 0.492188 -0.175781 0.375 -0.296875 0.28125 -0.453125 C 0.195312 -0.617188 0.15625 -0.804688 0.15625 -1.015625 C 0.15625 -1.210938 0.195312 -1.390625 0.28125 -1.546875 C 0.375 -1.710938 0.5 -1.835938 0.65625 -1.921875 C 0.8125 -2.003906 0.984375 -2.046875 1.171875 -2.046875 C 1.367188 -2.046875 1.539062 -2.003906 1.6875 -1.921875 C 1.84375 -1.835938 1.960938 -1.71875 2.046875 -1.5625 C 2.140625 -1.40625 2.1875 -1.222656 2.1875 -1.015625 C 2.1875 -0.804688 2.140625 -0.617188 2.046875 -0.453125 C 1.960938 -0.296875 1.84375 -0.175781 1.6875 -0.09375 C 1.53125 -0.0078125 1.351562 0.03125 1.15625 0.03125 Z M 1.15625 -0.265625 C 1.28125 -0.265625 1.394531 -0.289062 1.5 -0.34375 C 1.601562 -0.394531 1.6875 -0.476562 1.75 -0.59375 C 1.8125 -0.707031 1.84375 -0.847656 1.84375 -1.015625 C 1.84375 -1.171875 1.8125 -1.304688 1.75 -1.421875 C 1.6875 -1.535156 1.601562 -1.617188 1.5 -1.671875 C 1.394531 -1.722656 1.285156 -1.75 1.171875 -1.75 C 1.046875 -1.75 0.929688 -1.722656 0.828125 -1.671875 C 0.734375 -1.617188 0.65625 -1.535156 0.59375 -1.421875 C 0.53125 -1.304688 0.5 -1.171875 0.5 -1.015625 C 0.5 -0.847656 0.523438 -0.707031 0.578125 -0.59375 C 0.640625 -0.476562 0.722656 -0.394531 0.828125 -0.34375 C 0.929688 -0.289062 1.039062 -0.265625 1.15625 -0.265625 Z M 1.15625 -0.265625 "/></g></g></g><g fill="#000000" fill-opacity="1"><g transform="translate(90.044385, 26.148682)"><g/></g></g><g fill="#000000" fill-opacity="1"><g transform="translate(91.025781, 26.148682)"><g><path d="M 1.09375 0.03125 C 0.925781 0.03125 0.773438 0 0.640625 -0.0625 C 0.503906 -0.125 0.398438 -0.207031 0.328125 -0.3125 C 0.253906 -0.414062 0.210938 -0.539062 0.203125 -0.6875 L 0.5625 -0.6875 C 0.570312 -0.5625 0.617188 -0.457031 0.703125 -0.375 C 0.796875 -0.289062 0.925781 -0.25 1.09375 -0.25 C 1.25 -0.25 1.375 -0.289062 1.46875 -0.375 C 1.5625 -0.457031 1.609375 -0.5625 1.609375 -0.6875 C 1.609375 -0.78125 1.582031 -0.859375 1.53125 -0.921875 C 1.476562 -0.984375 1.410156 -1.03125 1.328125 -1.0625 C 1.242188 -1.09375 1.132812 -1.125 1 -1.15625 C 0.832031 -1.207031 0.695312 -1.253906 0.59375 -1.296875 C 0.488281 -1.335938 0.398438 -1.40625 0.328125 -1.5 C 0.253906 -1.59375 0.21875 -1.722656 0.21875 -1.890625 C 0.21875 -2.023438 0.253906 -2.144531 0.328125 -2.25 C 0.398438 -2.363281 0.5 -2.445312 0.625 -2.5 C 0.757812 -2.5625 0.910156 -2.59375 1.078125 -2.59375 C 1.316406 -2.59375 1.507812 -2.53125 1.65625 -2.40625 C 1.8125 -2.289062 1.898438 -2.132812 1.921875 -1.9375 L 1.546875 -1.9375 C 1.535156 -2.03125 1.484375 -2.113281 1.390625 -2.1875 C 1.304688 -2.269531 1.191406 -2.3125 1.046875 -2.3125 C 0.898438 -2.3125 0.78125 -2.273438 0.6875 -2.203125 C 0.601562 -2.128906 0.5625 -2.023438 0.5625 -1.890625 C 0.5625 -1.796875 0.585938 -1.71875 0.640625 -1.65625 C 0.691406 -1.601562 0.753906 -1.5625 0.828125 -1.53125 C 0.910156 -1.5 1.019531 -1.460938 1.15625 -1.421875 C 1.332031 -1.378906 1.46875 -1.332031 1.5625 -1.28125 C 1.664062 -1.238281 1.753906 -1.171875 1.828125 -1.078125 C 1.910156 -0.984375 1.953125 -0.859375 1.953125 -0.703125 C 1.953125 -0.578125 1.914062 -0.457031 1.84375 -0.34375 C 1.78125 -0.238281 1.679688 -0.148438 1.546875 -0.078125 C 1.421875 -0.00390625 1.269531 0.03125 1.09375 0.03125 Z M 1.09375 0.03125 "/></g></g></g><g fill="#000000" fill-opacity="1"><g transform="translate(93.183381, 26.148682)"><g><path d="M 2.96875 -2.015625 L 2.328125 0 L 1.984375 0 L 1.5 -1.59375 L 1.015625 0 L 0.671875 0 L 0.046875 -2.015625 L 0.390625 -2.015625 L 0.84375 -0.328125 L 1.34375 -2.015625 L 1.6875 -2.015625 L 2.171875 -0.3125 L 2.625 -2.015625 Z M 2.96875 -2.015625 "/></g></g></g><g fill="#000000" fill-opacity="1"><g transform="translate(96.197405, 26.148682)"><g><path d="M 0.15625 -1.015625 C 0.15625 -1.222656 0.195312 -1.398438 0.28125 -1.546875 C 0.363281 -1.703125 0.476562 -1.820312 0.625 -1.90625 C 0.769531 -2 0.929688 -2.046875 1.109375 -2.046875 C 1.285156 -2.046875 1.4375 -2.003906 1.5625 -1.921875 C 1.695312 -1.847656 1.796875 -1.753906 1.859375 -1.640625 L 1.859375 -2.015625 L 2.203125 -2.015625 L 2.203125 0 L 1.859375 0 L 1.859375 -0.375 C 1.796875 -0.257812 1.695312 -0.160156 1.5625 -0.078125 C 1.4375 -0.00390625 1.285156 0.03125 1.109375 0.03125 C 0.929688 0.03125 0.769531 -0.0078125 0.625 -0.09375 C 0.476562 -0.1875 0.363281 -0.3125 0.28125 -0.46875 C 0.195312 -0.625 0.15625 -0.804688 0.15625 -1.015625 Z M 1.859375 -1.015625 C 1.859375 -1.160156 1.828125 -1.289062 1.765625 -1.40625 C 1.703125 -1.519531 1.617188 -1.601562 1.515625 -1.65625 C 1.410156 -1.71875 1.296875 -1.75 1.171875 -1.75 C 1.046875 -1.75 0.929688 -1.71875 0.828125 -1.65625 C 0.734375 -1.601562 0.65625 -1.519531 0.59375 -1.40625 C 0.53125 -1.289062 0.5 -1.160156 0.5 -1.015625 C 0.5 -0.859375 0.53125 -0.722656 0.59375 -0.609375 C 0.65625 -0.492188 0.734375 -0.40625 0.828125 -0.34375 C 0.929688 -0.289062 1.046875 -0.265625 1.171875 -0.265625 C 1.296875 -0.265625 1.410156 -0.289062 1.515625 -0.34375 C 1.617188 -0.40625 1.703125 -0.492188 1.765625 -0.609375 C 1.828125 -0.722656 1.859375 -0.859375 1.859375 -1.015625 Z M 1.859375 -1.015625 "/></g></g></g><g fill="#000000" fill-opacity="1"><g transform="translate(98.682137, 26.148682)"><g><path d="M 0.609375 -2.71875 L 0.609375 0 L 0.28125 0 L 0.28125 -2.71875 Z M 0.609375 -2.71875 "/></g></g></g><g fill="#000000" fill-opacity="1"><g transform="translate(99.586345, 26.148682)"><g><path d="M 0.15625 -1.015625 C 0.15625 -1.222656 0.195312 -1.398438 0.28125 -1.546875 C 0.363281 -1.703125 0.476562 -1.820312 0.625 -1.90625 C 0.769531 -2 0.929688 -2.046875 1.109375 -2.046875 C 1.285156 -2.046875 1.4375 -2.003906 1.5625 -1.921875 C 1.695312 -1.847656 1.796875 -1.753906 1.859375 -1.640625 L 1.859375 -2.015625 L 2.203125 -2.015625 L 2.203125 0 L 1.859375 0 L 1.859375 -0.375 C 1.796875 -0.257812 1.695312 -0.160156 1.5625 -0.078125 C 1.4375 -0.00390625 1.285156 0.03125 1.109375 0.03125 C 0.929688 0.03125 0.769531 -0.0078125 0.625 -0.09375 C 0.476562 -0.1875 0.363281 -0.3125 0.28125 -0.46875 C 0.195312 -0.625 0.15625 -0.804688 0.15625 -1.015625 Z M 1.859375 -1.015625 C 1.859375 -1.160156 1.828125 -1.289062 1.765625 -1.40625 C 1.703125 -1.519531 1.617188 -1.601562 1.515625 -1.65625 C 1.410156 -1.71875 1.296875 -1.75 1.171875 -1.75 C 1.046875 -1.75 0.929688 -1.71875 0.828125 -1.65625 C 0.734375 -1.601562 0.65625 -1.519531 0.59375 -1.40625 C 0.53125 -1.289062 0.5 -1.160156 0.5 -1.015625 C 0.5 -0.859375 0.53125 -0.722656 0.59375 -0.609375 C 0.65625 -0.492188 0.734375 -0.40625 0.828125 -0.34375 C 0.929688 -0.289062 1.046875 -0.265625 1.171875 -0.265625 C 1.296875 -0.265625 1.410156 -0.289062 1.515625 -0.34375 C 1.617188 -0.40625 1.703125 -0.492188 1.765625 -0.609375 C 1.828125 -0.722656 1.859375 -0.859375 1.859375 -1.015625 Z M 1.859375 -1.015625 "/></g></g></g><g fill="#000000" fill-opacity="1"><g transform="translate(102.071078, 26.148682)"><g><path d="M 2.015625 -2.015625 L 0.796875 0.953125 L 0.453125 0.953125 L 0.859375 -0.015625 L 0.046875 -2.015625 L 0.421875 -2.015625 L 1.046875 -0.375 L 1.671875 -2.015625 Z M 2.015625 -2.015625 "/></g></g></g><g fill="#000000" fill-opacity="1"><g transform="translate(104.14046, 26.148682)"><g><path d="M 0.15625 -1.015625 C 0.15625 -1.222656 0.195312 -1.398438 0.28125 -1.546875 C 0.363281 -1.703125 0.476562 -1.820312 0.625 -1.90625 C 0.769531 -2 0.929688 -2.046875 1.109375 -2.046875 C 1.285156 -2.046875 1.4375 -2.003906 1.5625 -1.921875 C 1.695312 -1.847656 1.796875 -1.753906 1.859375 -1.640625 L 1.859375 -2.015625 L 2.203125 -2.015625 L 2.203125 0 L 1.859375 0 L 1.859375 -0.375 C 1.796875 -0.257812 1.695312 -0.160156 1.5625 -0.078125 C 1.4375 -0.00390625 1.285156 0.03125 1.109375 0.03125 C 0.929688 0.03125 0.769531 -0.0078125 0.625 -0.09375 C 0.476562 -0.1875 0.363281 -0.3125 0.28125 -0.46875 C 0.195312 -0.625 0.15625 -0.804688 0.15625 -1.015625 Z M 1.859375 -1.015625 C 1.859375 -1.160156 1.828125 -1.289062 1.765625 -1.40625 C 1.703125 -1.519531 1.617188 -1.601562 1.515625 -1.65625 C 1.410156 -1.71875 1.296875 -1.75 1.171875 -1.75 C 1.046875 -1.75 0.929688 -1.71875 0.828125 -1.65625 C 0.734375 -1.601562 0.65625 -1.519531 0.59375 -1.40625 C 0.53125 -1.289062 0.5 -1.160156 0.5 -1.015625 C 0.5 -0.859375 0.53125 -0.722656 0.59375 -0.609375 C 0.65625 -0.492188 0.734375 -0.40625 0.828125 -0.34375 C 0.929688 -0.289062 1.046875 -0.265625 1.171875 -0.265625 C 1.296875 -0.265625 1.410156 -0.289062 1.515625 -0.34375 C 1.617188 -0.40625 1.703125 -0.492188 1.765625 -0.609375 C 1.828125 -0.722656 1.859375 -0.859375 1.859375 -1.015625 Z M 1.859375 -1.015625 "/></g></g></g><g fill="#000000" fill-opacity="1"><g transform="translate(106.625192, 26.148682)"><g><path d="M 1.265625 -2.046875 C 1.503906 -2.046875 1.695312 -1.972656 1.84375 -1.828125 C 2 -1.679688 2.078125 -1.46875 2.078125 -1.1875 L 2.078125 0 L 1.75 0 L 1.75 -1.140625 C 1.75 -1.335938 1.695312 -1.488281 1.59375 -1.59375 C 1.5 -1.707031 1.363281 -1.765625 1.1875 -1.765625 C 1.007812 -1.765625 0.867188 -1.707031 0.765625 -1.59375 C 0.660156 -1.476562 0.609375 -1.316406 0.609375 -1.109375 L 0.609375 0 L 0.28125 0 L 0.28125 -2.015625 L 0.609375 -2.015625 L 0.609375 -1.71875 C 0.679688 -1.820312 0.773438 -1.898438 0.890625 -1.953125 C 1.003906 -2.015625 1.128906 -2.046875 1.265625 -2.046875 Z M 1.265625 -2.046875 "/></g></g></g><g fill="#000000" fill-opacity="1"><g transform="translate(108.9776, 26.148682)"><g/></g></g><g fill="#000000" fill-opacity="1"><g transform="translate(109.959001, 26.148682)"><g><path d="M 1.859375 -2.5625 L 1.859375 -2.28125 L 1.15625 -2.28125 L 1.15625 0 L 0.828125 0 L 0.828125 -2.28125 L 0.125 -2.28125 L 0.125 -2.5625 Z M 1.859375 -2.5625 "/></g></g></g><g fill="#000000" fill-opacity="1"><g transform="translate(111.947527, 26.148682)"><g><path d="M 0.15625 -1.015625 C 0.15625 -1.222656 0.195312 -1.398438 0.28125 -1.546875 C 0.363281 -1.703125 0.476562 -1.820312 0.625 -1.90625 C 0.769531 -2 0.929688 -2.046875 1.109375 -2.046875 C 1.285156 -2.046875 1.4375 -2.003906 1.5625 -1.921875 C 1.695312 -1.847656 1.796875 -1.753906 1.859375 -1.640625 L 1.859375 -2.015625 L 2.203125 -2.015625 L 2.203125 0 L 1.859375 0 L 1.859375 -0.375 C 1.796875 -0.257812 1.695312 -0.160156 1.5625 -0.078125 C 1.4375 -0.00390625 1.285156 0.03125 1.109375 0.03125 C 0.929688 0.03125 0.769531 -0.0078125 0.625 -0.09375 C 0.476562 -0.1875 0.363281 -0.3125 0.28125 -0.46875 C 0.195312 -0.625 0.15625 -0.804688 0.15625 -1.015625 Z M 1.859375 -1.015625 C 1.859375 -1.160156 1.828125 -1.289062 1.765625 -1.40625 C 1.703125 -1.519531 1.617188 -1.601562 1.515625 -1.65625 C 1.410156 -1.71875 1.296875 -1.75 1.171875 -1.75 C 1.046875 -1.75 0.929688 -1.71875 0.828125 -1.65625 C 0.734375 -1.601562 0.65625 -1.519531 0.59375 -1.40625 C 0.53125 -1.289062 0.5 -1.160156 0.5 -1.015625 C 0.5 -0.859375 0.53125 -0.722656 0.59375 -0.609375 C 0.65625 -0.492188 0.734375 -0.40625 0.828125 -0.34375 C 0.929688 -0.289062 1.046875 -0.265625 1.171875 -0.265625 C 1.296875 -0.265625 1.410156 -0.289062 1.515625 -0.34375 C 1.617188 -0.40625 1.703125 -0.492188 1.765625 -0.609375 C 1.828125 -0.722656 1.859375 -0.859375 1.859375 -1.015625 Z M 1.859375 -1.015625 "/></g></g></g><g fill="#000000" fill-opacity="1"><g transform="translate(114.432259, 26.148682)"><g><path d="M 1.265625 -2.046875 C 1.503906 -2.046875 1.695312 -1.972656 1.84375 -1.828125 C 2 -1.679688 2.078125 -1.46875 2.078125 -1.1875 L 2.078125 0 L 1.75 0 L 1.75 -1.140625 C 1.75 -1.335938 1.695312 -1.488281 1.59375 -1.59375 C 1.5 -1.707031 1.363281 -1.765625 1.1875 -1.765625 C 1.007812 -1.765625 0.867188 -1.707031 0.765625 -1.59375 C 0.660156 -1.476562 0.609375 -1.316406 0.609375 -1.109375 L 0.609375 0 L 0.28125 0 L 0.28125 -2.015625 L 0.609375 -2.015625 L 0.609375 -1.71875 C 0.679688 -1.820312 0.773438 -1.898438 0.890625 -1.953125 C 1.003906 -2.015625 1.128906 -2.046875 1.265625 -2.046875 Z M 1.265625 -2.046875 "/></g></g></g><g fill="#000000" fill-opacity="1"><g transform="translate(116.784667, 26.148682)"><g><path d="M 0.15625 -1.015625 C 0.15625 -1.222656 0.195312 -1.398438 0.28125 -1.546875 C 0.363281 -1.703125 0.476562 -1.820312 0.625 -1.90625 C 0.769531 -2 0.929688 -2.046875 1.109375 -2.046875 C 1.285156 -2.046875 1.4375 -2.003906 1.5625 -1.921875 C 1.695312 -1.847656 1.796875 -1.753906 1.859375 -1.640625 L 1.859375 -2.015625 L 2.203125 -2.015625 L 2.203125 0 L 1.859375 0 L 1.859375 -0.375 C 1.796875 -0.257812 1.695312 -0.160156 1.5625 -0.078125 C 1.4375 -0.00390625 1.285156 0.03125 1.109375 0.03125 C 0.929688 0.03125 0.769531 -0.0078125 0.625 -0.09375 C 0.476562 -0.1875 0.363281 -0.3125 0.28125 -0.46875 C 0.195312 -0.625 0.15625 -0.804688 0.15625 -1.015625 Z M 1.859375 -1.015625 C 1.859375 -1.160156 1.828125 -1.289062 1.765625 -1.40625 C 1.703125 -1.519531 1.617188 -1.601562 1.515625 -1.65625 C 1.410156 -1.71875 1.296875 -1.75 1.171875 -1.75 C 1.046875 -1.75 0.929688 -1.71875 0.828125 -1.65625 C 0.734375 -1.601562 0.65625 -1.519531 0.59375 -1.40625 C 0.53125 -1.289062 0.5 -1.160156 0.5 -1.015625 C 0.5 -0.859375 0.53125 -0.722656 0.59375 -0.609375 C 0.65625 -0.492188 0.734375 -0.40625 0.828125 -0.34375 C 0.929688 -0.289062 1.046875 -0.265625 1.171875 -0.265625 C 1.296875 -0.265625 1.410156 -0.289062 1.515625 -0.34375 C 1.617188 -0.40625 1.703125 -0.492188 1.765625 -0.609375 C 1.828125 -0.722656 1.859375 -0.859375 1.859375 -1.015625 Z M 1.859375 -1.015625 "/></g></g></g><g fill="#000000" fill-opacity="1"><g transform="translate(119.269399, 26.148682)"><g><path d="M 1.28125 -2.046875 C 1.4375 -2.046875 1.570312 -2.015625 1.6875 -1.953125 C 1.8125 -1.890625 1.90625 -1.789062 1.96875 -1.65625 C 2.039062 -1.53125 2.078125 -1.375 2.078125 -1.1875 L 2.078125 0 L 1.75 0 L 1.75 -1.140625 C 1.75 -1.335938 1.695312 -1.488281 1.59375 -1.59375 C 1.5 -1.707031 1.363281 -1.765625 1.1875 -1.765625 C 1.007812 -1.765625 0.867188 -1.707031 0.765625 -1.59375 C 0.660156 -1.476562 0.609375 -1.316406 0.609375 -1.109375 L 0.609375 0 L 0.28125 0 L 0.28125 -2.71875 L 0.609375 -2.71875 L 0.609375 -1.71875 C 0.679688 -1.820312 0.773438 -1.898438 0.890625 -1.953125 C 1.003906 -2.015625 1.132812 -2.046875 1.28125 -2.046875 Z M 1.28125 -2.046875 "/></g></g></g><g fill="#000000" fill-opacity="1"><g transform="translate(121.621807, 26.148682)"><g/></g></g><g fill="#000000" fill-opacity="1"><g transform="translate(122.603208, 26.148682)"><g><path d="M 0.609375 -0.265625 L 1.515625 -0.265625 L 1.515625 0 L 0.28125 0 L 0.28125 -2.5625 L 0.609375 -2.5625 Z M 0.609375 -0.265625 "/></g></g></g><g fill="#000000" fill-opacity="1"><g transform="translate(124.191079, 26.148682)"><g><path d="M 0.15625 -1.015625 C 0.15625 -1.222656 0.195312 -1.398438 0.28125 -1.546875 C 0.363281 -1.703125 0.476562 -1.820312 0.625 -1.90625 C 0.769531 -2 0.929688 -2.046875 1.109375 -2.046875 C 1.285156 -2.046875 1.4375 -2.003906 1.5625 -1.921875 C 1.695312 -1.847656 1.796875 -1.753906 1.859375 -1.640625 L 1.859375 -2.015625 L 2.203125 -2.015625 L 2.203125 0 L 1.859375 0 L 1.859375 -0.375 C 1.796875 -0.257812 1.695312 -0.160156 1.5625 -0.078125 C 1.4375 -0.00390625 1.285156 0.03125 1.109375 0.03125 C 0.929688 0.03125 0.769531 -0.0078125 0.625 -0.09375 C 0.476562 -0.1875 0.363281 -0.3125 0.28125 -0.46875 C 0.195312 -0.625 0.15625 -0.804688 0.15625 -1.015625 Z M 1.859375 -1.015625 C 1.859375 -1.160156 1.828125 -1.289062 1.765625 -1.40625 C 1.703125 -1.519531 1.617188 -1.601562 1.515625 -1.65625 C 1.410156 -1.71875 1.296875 -1.75 1.171875 -1.75 C 1.046875 -1.75 0.929688 -1.71875 0.828125 -1.65625 C 0.734375 -1.601562 0.65625 -1.519531 0.59375 -1.40625 C 0.53125 -1.289062 0.5 -1.160156 0.5 -1.015625 C 0.5 -0.859375 0.53125 -0.722656 0.59375 -0.609375 C 0.65625 -0.492188 0.734375 -0.40625 0.828125 -0.34375 C 0.929688 -0.289062 1.046875 -0.265625 1.171875 -0.265625 C 1.296875 -0.265625 1.410156 -0.289062 1.515625 -0.34375 C 1.617188 -0.40625 1.703125 -0.492188 1.765625 -0.609375 C 1.828125 -0.722656 1.859375 -0.859375 1.859375 -1.015625 Z M 1.859375 -1.015625 "/></g></g></g><g fill="#000000" fill-opacity="1"><g transform="translate(126.675811, 26.148682)"><g><path d="M 2.0625 -2.015625 L 2.0625 0 L 1.734375 0 L 1.734375 -0.296875 C 1.671875 -0.191406 1.582031 -0.109375 1.46875 -0.046875 C 1.351562 0.00390625 1.226562 0.03125 1.09375 0.03125 C 0.9375 0.03125 0.796875 0 0.671875 -0.0625 C 0.546875 -0.132812 0.445312 -0.234375 0.375 -0.359375 C 0.300781 -0.484375 0.265625 -0.640625 0.265625 -0.828125 L 0.265625 -2.015625 L 0.59375 -2.015625 L 0.59375 -0.875 C 0.59375 -0.675781 0.640625 -0.523438 0.734375 -0.421875 C 0.835938 -0.316406 0.976562 -0.265625 1.15625 -0.265625 C 1.332031 -0.265625 1.472656 -0.316406 1.578125 -0.421875 C 1.679688 -0.535156 1.734375 -0.695312 1.734375 -0.90625 L 1.734375 -2.015625 Z M 2.0625 -2.015625 "/></g></g></g><g fill="#000000" fill-opacity="1"><g transform="translate(129.028219, 26.148682)"><g><path d="M 0.6875 -1.734375 L 0.6875 -0.546875 C 0.6875 -0.453125 0.707031 -0.382812 0.75 -0.34375 C 0.789062 -0.300781 0.863281 -0.28125 0.96875 -0.28125 L 1.21875 -0.28125 L 1.21875 0 L 0.921875 0 C 0.734375 0 0.59375 -0.0390625 0.5 -0.125 C 0.40625 -0.207031 0.359375 -0.347656 0.359375 -0.546875 L 0.359375 -1.734375 L 0.09375 -1.734375 L 0.09375 -2.015625 L 0.359375 -2.015625 L 0.359375 -2.515625 L 0.6875 -2.515625 L 0.6875 -2.015625 L 1.21875 -2.015625 L 1.21875 -1.734375 Z M 0.6875 -1.734375 "/></g></g></g></svg>